<?xml version="1.0" standalone="no"?>
<!DOCTYPE svg PUBLIC "-//W3C//DTD SVG 1.1//EN" "http://www.w3.org/Graphics/SVG/1.1/DTD/svg11.dtd" >
<svg xmlns="http://www.w3.org/2000/svg">
<metadata>
This is a custom SVG webfont generated by Font Squirrel.
Copyright   : Copyright  2011 by Jonathan Hill All rights reserved
Designer    : Jonathan Hill
Foundry     : The Northern Block
Foundry URL : httpwwwthenorthernblockcouk
</metadata>
<defs>
<font id="PlanerBold" horiz-adv-x="1202" >
<font-face units-per-em="2048" ascent="1536" descent="-512" />
<missing-glyph horiz-adv-x="634" />
<glyph unicode=" "  horiz-adv-x="634" />
<glyph unicode="&#x09;" horiz-adv-x="634" />
<glyph unicode="&#xa0;" horiz-adv-x="634" />
<glyph unicode="!" horiz-adv-x="364" d="M55 119v78q0 51 35 83.5t92 32.5q53 0 90 -32.5t37 -83.5v-78q0 -51 -36.5 -86t-90.5 -35q-57 0 -92 35t-35 86zM55 510v807q0 49 35 83t92 34q53 0 90 -34t37 -83v-807q0 -49 -36.5 -83t-90.5 -34q-57 0 -92 34t-35 83z" />
<glyph unicode="&#x22;" horiz-adv-x="729" d="M63 1055v286q0 51 37 86t91.5 35t90 -34.5t35.5 -86.5v-286q0 -49 -36.5 -83t-90 -34t-90.5 33t-37 84zM414 1055v286q0 51 35.5 86t91.5 35q55 0 91 -34.5t36 -86.5v-286q0 -49 -36 -83t-91 -34t-91 33t-36 84z" />
<glyph unicode="#" horiz-adv-x="1230" d="M45 449q0 49 37 82.5t94 33.5h84l49 213h-100q-53 0 -90 34t-37 85q0 49 37 85t94 36h145l60 274q12 43 47 74t86 31q53 0 88 -30t35 -79q0 -12 -4 -26l-54 -244h138l57 274q12 43 48 74t85 31q51 0 87 -32t36 -79q0 -12 -2 -24l-55 -244h53q57 0 93 -36t36 -85 q0 -51 -35 -85t-90 -34h-106l-48 -213h107q57 0 93 -33.5t36 -82.5q0 -51 -35 -86t-90 -35h-162l-47 -224q-8 -41 -46 -73.5t-83 -32.5q-53 0 -89 31.5t-36 79.5q0 10 2 22l43 197h-135l-47 -228q-10 -41 -49 -71.5t-84 -30.5q-49 0 -86 35t-37 80q0 8 2 18l41 197h-39 q-55 0 -91 35t-36 86zM520 565h133l47 213h-133z" />
<glyph unicode="$" horiz-adv-x="1085" d="M70 119q0 45 36.5 81t88.5 36h258v401q-66 16 -116 33.5t-103.5 48.5t-87 71.5t-55 103t-21.5 144.5q0 350 383 389v52q0 35 27.5 61.5t67.5 26.5t67.5 -27t27.5 -65v-41h221q57 0 93 -37t36 -82t-37.5 -82t-89.5 -37h-223v-352q188 -41 284.5 -127t96.5 -262 q0 -410 -381 -449v-49q0 -37 -27.5 -63.5t-67.5 -26.5t-67.5 25.5t-27.5 60.5v47h-258q-51 0 -88 36t-37 83zM322 1038q0 -70 30.5 -102.5t100.5 -52.5v303q-131 -23 -131 -148zM643 250q129 31 129 205q0 59 -29.5 88.5t-99.5 50.5v-344z" />
<glyph unicode="%" horiz-adv-x="1282" d="M80 1108q0 154 57.5 223.5t184.5 69.5q125 0 183 -69.5t58 -225.5q0 -158 -59.5 -230.5t-181.5 -72.5q-125 0 -183.5 72.5t-58.5 232.5zM84 80q0 35 22 67l914 1260q31 43 86 43q37 0 61 -20q43 -31 43 -80q0 -33 -22 -64l-916 -1259q-27 -43 -79 -43q-33 0 -58 14 q-51 27 -51 82zM233 1108q0 -80 19.5 -119t69.5 -39q47 0 67.5 38t20.5 118q0 74 -20.5 109.5t-67.5 35.5q-49 0 -69 -35.5t-20 -107.5zM717 303q0 156 57 224.5t182 68.5t184.5 -69.5t59.5 -225.5t-60.5 -229.5t-183.5 -73.5t-181 73.5t-58 231.5zM868 303q0 -80 20.5 -119 t67.5 -39q49 0 68.5 38t19.5 118q0 74 -19 109.5t-69 35.5q-47 0 -67.5 -34.5t-20.5 -108.5z" />
<glyph unicode="&#x26;" horiz-adv-x="1284" d="M61 365q0 45 14.5 87t34 71.5t53.5 62t55.5 50t60 46.5t51.5 37l71 57l-47 62q-92 111 -92 260q0 147 99.5 241.5t242.5 94.5h62q147 0 246.5 -88.5t99.5 -247.5q0 -29 -7.5 -57.5t-16.5 -51t-30.5 -49.5t-34 -42t-43 -41t-41 -35t-45 -34.5t-38.5 -29.5l-23 -17 l148 -186l28 109q18 70 90 69q16 0 39 -4q94 -18 95 -88q0 -20 -9 -45l-61 -227q-2 -16 -6 -33l106 -137q35 -43 35 -84q0 -47 -49 -86q-39 -29 -78 -29q-49 0 -94 55l-35 45q-10 -18 -24 -30q-78 -68 -213 -68h-302q-145 0 -243.5 101.5t-98.5 261.5zM305 365 q0 -63 27.5 -99.5t70.5 -36.5h302q31 0 38 1t17 12q23 18 33 43l-246 309l-68 -53q-20 -14 -56 -41t-50.5 -39t-34 -30.5t-26.5 -34t-7 -31.5zM506 1098q0 -74 39 -119l43 -57l57 45q47 37 67.5 54t39 38.5t18.5 38.5q0 59 -24.5 82.5t-79.5 23.5h-62q-45 0 -71.5 -27.5 t-26.5 -78.5z" />
<glyph unicode="'" horiz-adv-x="364" d="M55 1055v286q0 51 35 86t92 35q53 0 90 -34.5t37 -86.5v-286q0 -49 -36.5 -83t-90.5 -34q-57 0 -92 34t-35 83z" />
<glyph unicode="(" horiz-adv-x="530" d="M61 606q0 150 66 391.5t102 331.5q10 35 46 56.5t77 21.5q25 0 45 -8q70 -29 70 -92q0 -27 -10 -62q-141 -410 -142 -639q0 -115 41 -293t64.5 -253.5t40.5 -122.5q8 -20 8 -43q0 -66 -61 -97q-29 -14 -60 -14q-39 0 -70.5 19.5t-44.5 54.5l-7 18q-7 18 -16 48t-22.5 71 t-28 89t-27.5 101.5t-26.5 109.5t-22.5 109.5t-15.5 106.5t-6.5 96z" />
<glyph unicode=")" horiz-adv-x="530" d="M61 -106q0 20 9 43q123 358 141 608q4 33 4 61q0 229 -141 639q-10 35 -11 62q0 63 70 92q20 8 45 8q41 0 77 -21.5t46 -56.5q37 -90 102.5 -331.5t65.5 -391.5q0 -43 -6 -96t-15.5 -106.5t-22.5 -109.5t-26.5 -109.5t-28 -101.5t-27.5 -89t-22.5 -70.5t-16.5 -48.5 l-7 -18q-12 -35 -44 -54.5t-71 -19.5q-31 0 -59 14q-62 29 -62 97z" />
<glyph unicode="*" horiz-adv-x="866" d="M98 1182q0 12 4 26q8 33 40 54.5t67 21.5q14 0 29 -4l90 -31v97q0 41 34.5 70.5t73.5 29.5q47 0 78 -32t31 -71v-96l80 25q18 6 37 6q37 0 65.5 -20.5t36.5 -55.5q2 -10 2 -22q0 -33 -18.5 -60.5t-53.5 -38.5l-94 -30l70 -99q10 -20 10 -41q0 -47 -37 -75 q-31 -23 -70 -23q-55 0 -90 41l-53 74l-53 -72q-27 -39 -88 -39q-39 0 -64 19q-41 29 -41 77q0 37 23 66l61 80l-98 33q-72 22 -72 90z" />
<glyph unicode="+" horiz-adv-x="1204" d="M82 516q0 45 36 81t91 36h266v278q0 49 39 82t88 33q53 0 89 -31.5t36 -81.5v-280h270q53 0 90 -35t37 -84t-36.5 -83t-90.5 -34h-270v-284q0 -45 -37 -77t-92 -32q-49 0 -86 33t-37 84v276h-278q-47 0 -81 35t-34 84z" />
<glyph unicode="," horiz-adv-x="440" d="M61 -33q0 57 50 80q20 8 20 49v82q0 53 34 88t91 35q51 0 89 -38t38 -85v-123q0 -86 -66.5 -144t-132.5 -63q-51 0 -87 34t-36 81v4z" />
<glyph unicode="-" horiz-adv-x="888" d="M72 537q0 45 35.5 79.5t89.5 34.5h497q55 0 90 -33.5t35 -82.5q0 -51 -34.5 -85t-90.5 -34h-495q-127 0 -127 121z" />
<glyph unicode="." horiz-adv-x="372" d="M57 84v70q0 51 36 86.5t93 35.5q53 0 92 -35.5t39 -86.5v-66q0 -55 -38.5 -91t-92.5 -36q-57 0 -93 35t-36 88z" />
<glyph unicode="/" horiz-adv-x="903" d="M70 94q0 18 8 37l553 1243q29 63 100 64q29 0 53 -11q51 -25 52 -88q0 -29 -11 -53l-549 -1233q-29 -61 -100 -61q-31 0 -53 16q-53 35 -53 86z" />
<glyph unicode="0" horiz-adv-x="1169" d="M80 489v330q0 260 135 393.5t371 133.5q238 0 371 -135.5t133 -391.5v-330q0 -248 -135.5 -376.5t-368.5 -128.5q-231 0 -368.5 130.5t-137.5 374.5zM334 489q0 -135 65.5 -202.5t186.5 -67.5t186.5 67.5t65.5 202.5v330q0 291 -252 291q-127 0 -189.5 -69.5 t-62.5 -221.5v-330z" />
<glyph unicode="1" horiz-adv-x="731" d="M68 1016q0 72 59 104l299 199q37 25 86 24q66 0 109 -41.5t43 -103.5v-1079q0 -53 -37 -88t-90.5 -35t-91 35t-37.5 86v901l-142 -98q-33 -23 -71 -23q-61 0 -101 45q-26 33 -26 74z" />
<glyph unicode="2" horiz-adv-x="1089" d="M78 131q0 61 49 102l436 408q150 141 150 266v54q0 72 -54.5 111.5t-138.5 39.5h-305q-49 0 -88 36t-39 81t39 81t88 36h307q190 0 314.5 -102.5t124.5 -282.5v-52q0 -135 -56.5 -234.5t-161.5 -197.5l-260 -241h404q55 0 91 -37t36 -82t-37 -81t-86 -36h-676 q-55 0 -96 40t-41 91z" />
<glyph unicode="3" horiz-adv-x="1036" d="M76 117q0 45 39 82t88 37h377q57 0 94 43t37 116q0 78 -38 128t-93 50h-230q-55 0 -93 36t-38 81q0 47 39 82t88 35h244q53 0 87 39t34 106q0 70 -38 115t-93 45h-375q-53 0 -91 36t-38 81t39 81t88 36h377q164 0 273.5 -113t109.5 -281q0 -160 -115 -264 q115 -115 115 -293q0 -174 -110 -284.5t-273 -110.5h-377q-49 0 -88 36t-39 81z" />
<glyph unicode="4" horiz-adv-x="1169" d="M80 438q0 27 12 62l311 776q27 68 109 67q39 0 70 -16q63 -35 63 -100q0 -23 -8 -41l-272 -668q-4 -6 -5 -12q0 -4 2 -8q4 -20 27 -21h254v197q0 53 37 87t92 34t90 -34t35 -83v-201h68q55 0 90 -34.5t35 -85t-35 -84t-90 -33.5h-68v-121q0 -53 -35 -88t-90 -35t-92 35 t-37 86v123h-356q-88 0 -147.5 58t-59.5 140z" />
<glyph unicode="5" horiz-adv-x="1050" d="M78 117q0 49 36 84t89 35h301q219 0 219 155v123q0 68 -51 102.5t-140 34.5h-299q-68 0 -111.5 41t-43.5 105v385q0 61 43 104t112 43h578q53 0 90 -33.5t37 -85t-37 -83t-90 -31.5h-481v-213h205q190 0 315 -94.5t125 -274.5v-123q0 -102 -37 -179t-102.5 -122 t-147.5 -67.5t-182 -22.5h-303q-53 0 -89 34t-36 83z" />
<glyph unicode="6" horiz-adv-x="1101" d="M78 483v355q0 250 135 377.5t381 127.5h262q57 0 93 -35.5t36 -82.5q0 -43 -37 -80t-88 -37h-266q-217 0 -250 -188l-6 -35h229q223 -2 341 -99.5t118 -289.5v-74q0 -190 -122 -308t-349 -118q-236 0 -356.5 118.5t-120.5 368.5zM334 487q0 -147 50 -201.5t171 -54.5 q213 0 213 191v74q0 80 -49 117.5t-156 37.5h-229v-164z" />
<glyph unicode="7" horiz-adv-x="1048" d="M76 1225q0 47 39 82.5t88 35.5h577q76 0 134.5 -56t58.5 -130q0 -39 -15 -72l-452 -1034q-23 -53 -103 -53q-41 0 -69 16q-63 37 -64 103q0 16 6 30l406 924q2 6 2 12q0 4 -2 9q-4 16 -25 16h-450q-55 0 -93 37t-38 80z" />
<glyph unicode="8" horiz-adv-x="1161" d="M80 393q0 90 39 171t114 118q-68 31 -110.5 107.5t-42.5 160.5q0 166 108.5 279.5t274.5 113.5h235q166 0 274.5 -113.5t108.5 -281.5q0 -82 -44 -160.5t-109 -103.5q72 -27 112.5 -114t40.5 -179q0 -172 -108.5 -283.5t-274.5 -111.5h-235q-164 0 -273.5 111.5 t-109.5 285.5zM330 393q0 -76 38 -119t95 -43h235q57 0 96.5 43t39.5 117q0 78 -39 128t-97 50h-235q-55 0 -94 -49t-39 -127zM330 950q0 -70 38 -108.5t97 -36.5h246q53 0 88 39t35 104q0 70 -39 115t-97 45h-235q-55 0 -94 -45t-39 -113z" />
<glyph unicode="9" horiz-adv-x="1101" d="M78 842v78q0 190 122 306.5t349 116.5q236 0 356.5 -118.5t120.5 -366.5v-358q0 -248 -135 -376t-381 -128h-264q-57 0 -92 36t-35 83q0 43 35.5 79.5t87.5 36.5h268q219 0 250 195l4 29h-227q-223 2 -341 99.5t-118 287.5zM334 842q0 -78 49 -115t158 -37h227v164 q0 145 -50 199.5t-169 54.5q-215 0 -215 -188v-78z" />
<glyph unicode=":" horiz-adv-x="372" d="M57 104v70q0 51 36 87t93 36q53 0 92 -36t39 -87v-65q0 -55 -38.5 -90t-92.5 -35q-57 0 -93 33.5t-36 86.5zM57 709v67q0 49 36 87t93 38q53 0 92 -38t39 -87v-63q0 -55 -38.5 -91t-92.5 -36q-57 0 -93 36t-36 87z" />
<glyph unicode=";" horiz-adv-x="444" d="M61 -35q0 59 50 80q20 10 20 49v84q0 47 35 84t90 37q51 0 89 -37t38 -84v-125q0 -86 -66.5 -144.5t-132.5 -62.5q-51 0 -87 34t-36 81v4zM129 705v69q0 47 36 85t93 38q53 0 91 -38t38 -85v-65q0 -55 -38 -91t-91 -36q-57 0 -93 36t-36 87z" />
<glyph unicode="&#x3c;" horiz-adv-x="950" d="M74 629q0 31 20.5 64.5t52.5 56.5l553 356q18 14 50 14q66 0 102 -47q25 -29 25 -74q0 -55 -41 -81l-420 -271q-10 -8 -11.5 -17t11.5 -18l407 -282q51 -35 51 -99q0 -41 -26 -71q-35 -43 -90 -43q-37 0 -74 24l-547 367q-63 45 -63 121z" />
<glyph unicode="=" horiz-adv-x="1204" d="M82 379q0 45 36 81t91 36h788q53 0 90 -34t37 -85q0 -49 -36.5 -83t-90.5 -34h-796q-51 6 -85 38t-34 81zM82 741q0 45 36 81t91 36h788q53 0 90 -35t37 -84q0 -51 -36.5 -83.5t-90.5 -32.5h-800q-49 6 -82 37.5t-33 80.5z" />
<glyph unicode="&#x3e;" horiz-adv-x="950" d="M76 999q0 45 24 74q35 47 101 47q33 0 51 -12l553 -358q33 -23 52.5 -57t19.5 -64q0 -76 -62 -121l-547 -367q-37 -25 -75 -24q-53 0 -91 43q-25 31 -24 71q0 63 51 99l408 282q10 8 10 17.5t-12 17.5l-418 271q-41 26 -41 81z" />
<glyph unicode="?" horiz-adv-x="948" d="M74 1317q0 45 33.5 81t89.5 36h247q201 0 315.5 -98.5t114.5 -280.5q0 -178 -163 -324l-129 -117q-37 -37 -37 -69v-41q0 -51 -36 -85t-89 -34t-90 33t-37 82v45q0 82 34.5 138t100.5 118l111 102q80 72 79 152q0 74 -40.5 108.5t-133.5 34.5h-243q-57 0 -92 35t-35 84z M289 104v76q0 47 39 83t94 36q49 0 88 -37t39 -82v-74q0 -53 -39 -87.5t-88 -34.5q-55 0 -94 35.5t-39 84.5z" />
<glyph unicode="@" horiz-adv-x="1273" d="M78 473v352q0 276 140 404.5t417 128.5q287 0 425 -133t138 -406q0 -119 -36 -213t-95 -148.5t-129 -82t-145 -27.5h-211q-98 0 -168 67.5t-70 162.5q0 92 69.5 158.5t168.5 66.5h127v18q0 25 -13.5 38t-33.5 13h-183q-43 0 -71.5 26t-28.5 63q0 39 28.5 67.5t71.5 28.5 h207q96 0 160.5 -67.5t64.5 -164.5v-250q80 96 80 250q0 182 -83 263t-269 81q-195 0 -274.5 -80.5t-79.5 -263.5v-352q0 -156 80.5 -237.5t220.5 -81.5q57 0 155 22q10 2 21 2q37 0 62.5 -29.5t25.5 -68.5q2 -31 -18.5 -55.5t-51.5 -34.5q-78 -25 -194 -25 q-233 0 -370.5 132t-137.5 376zM547 578q0 -20 10 -33t25 -13h127v84h-127q-35 1 -35 -38z" />
<glyph unicode="A" d="M35 119q0 16 4 35l340 1124q23 68 84 112t141 44q76 0 136.5 -44t82.5 -114l344 -1141q2 -12 2 -22q0 -43 -35.5 -78t-93.5 -35q-41 0 -77.5 26.5t-47.5 61.5l-94 297h-440l-92 -293q-10 -39 -47 -65.5t-80 -26.5q-57 0 -92 35t-35 84zM455 625h295l-140 462q-2 8 -7 8.5 t-7 -8.5z" />
<glyph unicode="B" horiz-adv-x="1251" d="M141 152v1130q0 63 45 107.5t115 44.5h416q174 0 296 -121t122 -289q0 -152 -119 -270q78 -57 123 -144.5t45 -183.5q0 -178 -127 -302t-309 -124h-447q-70 0 -115 44.5t-45 107.5zM395 236h353q74 0 128 56t54 134q0 80 -54.5 136t-127.5 56h-353v-382zM395 858h322 q66 0 114 48t48 118q0 72 -48.5 122t-113.5 50h-322v-338z" />
<glyph unicode="C" horiz-adv-x="1128" d="M104 506v409q0 266 134.5 392.5t377.5 126.5h318q49 0 87 -37t38 -82t-38 -82t-87 -37h-318q-129 0 -192.5 -65.5t-63.5 -215.5v-409q0 -123 68 -196.5t188 -73.5h314q53 0 91 -35t38 -82t-38 -83t-87 -36h-318q-242 0 -377 139.5t-135 366.5z" />
<glyph unicode="D" horiz-adv-x="1273" d="M141 152v1130q0 63 45 107.5t115 44.5h358q244 0 378 -126t134 -393v-409q0 -227 -136 -366.5t-376 -139.5h-358q-70 0 -115 44.5t-45 107.5zM395 236h264q121 0 187.5 73.5t66.5 196.5v409q0 150 -63.5 215.5t-190.5 65.5h-264v-960z" />
<glyph unicode="E" horiz-adv-x="1134" d="M141 152v1130q0 63 46 107.5t116 44.5h631q59 0 96 -35t37 -86t-36 -85t-93 -34h-541v-332h430q57 0 95.5 -34.5t38.5 -84.5q0 -53 -38 -87.5t-92 -34.5h-434v-381h537q59 0 96 -34t37 -85t-36 -86t-93 -35h-635q-70 0 -116 44.5t-46 107.5z" />
<glyph unicode="F" horiz-adv-x="1134" d="M141 121v1161q0 63 46 107.5t114 44.5h633q59 0 96 -35t37 -86t-36 -85t-93 -34h-541v-332h430q57 0 95.5 -34.5t38.5 -84.5q0 -53 -38 -87.5t-92 -34.5h-434v-496q0 -53 -36.5 -89t-92 -36t-91.5 35t-36 86z" />
<glyph unicode="G" horiz-adv-x="1277" d="M104 506v409q0 266 134.5 392.5t377.5 126.5h353q49 0 88 -37t39 -82t-39 -82t-88 -37h-353q-127 0 -190.5 -65.5t-63.5 -215.5v-409q0 -123 67 -196.5t187 -73.5h287v327h-141q-55 0 -92 36t-37 83q0 45 38 82t87 37h241q70 0 116 -45t46 -109v-495q0 -63 -46 -107.5 t-116 -44.5h-383q-240 0 -376 139.5t-136 366.5z" />
<glyph unicode="H" horiz-adv-x="1353" d="M141 121v1192q0 51 37 86t90 35q55 0 92 -36t37 -89v-471h557v475q0 51 38 86t93 35q53 0 91 -36t38 -89v-1184q0 -53 -37.5 -89t-91.5 -36q-55 0 -93 35t-38 86v479h-557v-475q0 -53 -36.5 -89t-92.5 -36q-53 0 -90 35t-37 86z" />
<glyph unicode="I" horiz-adv-x="536" d="M141 121v1192q0 51 36 86t91.5 35t92 -36t36.5 -89v-1184q0 -53 -36.5 -89t-92 -36t-91.5 35t-36 86z" />
<glyph unicode="J" horiz-adv-x="675" d="M35 119q0 45 37 81t90 36q88 0 102.5 21.5t14.5 150.5v16v889q0 51 37.5 86t91.5 35q57 0 93 -36t38 -89v-901q0 -82 -9.5 -145.5t-23.5 -106.5t-42 -73t-53.5 -46.5t-69.5 -24.5t-80 -10t-95 -2t-95 36t-36 83z" />
<glyph unicode="K" horiz-adv-x="1124" d="M141 121v1192q0 51 35 86t92 35q53 0 90 -35t37 -86v-475h49l398 548q33 47 100 48q55 0 92 -35t37 -86q0 -39 -35 -84l-387 -516l418 -520q25 -37 25 -72q0 -51 -37 -86t-92 -35q-63 0 -99 47l-420 537h-49v-459q0 -53 -35.5 -89t-91.5 -36q-57 0 -92 35t-35 86z" />
<glyph unicode="L" horiz-adv-x="1042" d="M141 152v1161q0 51 37 86t90 35q57 0 94 -35t37 -86v-1073h480q55 0 94 -34t39 -85t-38 -86t-91 -35h-580q-68 0 -115 44.5t-47 107.5z" />
<glyph unicode="M" horiz-adv-x="1562" d="M121 121v1108q0 82 62.5 143.5t146.5 61.5q74 0 129 -39t76 -103l229 -774l248 778q18 61 75.5 99.5t126.5 38.5q84 0 147.5 -61.5t63.5 -143.5v-1108q0 -51 -36.5 -86t-92.5 -35q-55 0 -92 36t-37 87v743q0 10 -6 11q-4 0 -6 -9l-256 -772q-14 -41 -49 -68.5t-90 -27.5 t-92 27.5t-50 70.5l-229 768q-2 6 -6 6q-8 0 -8 -8v-743q0 -49 -36 -85t-91 -36t-91 35t-36 86z" />
<glyph unicode="N" horiz-adv-x="1327" d="M121 121v1104q0 88 62.5 148.5t154.5 60.5q61 0 116.5 -35t80.5 -88l405 -889q2 -8 8 -8t6 10v889q0 51 36 86t93 35q55 0 91 -36t36 -85v-1104q0 -88 -62.5 -148.5t-152.5 -60.5q-61 0 -117.5 35t-80.5 88l-406 889q-2 6 -8 6t-6 -10v-887q0 -51 -37 -86t-92 -35 q-53 0 -90 35t-37 86z" />
<glyph unicode="O" horiz-adv-x="1314" d="M104 506v409q0 266 135.5 392.5t376.5 126.5h86q244 0 378 -126t134 -393v-409q0 -227 -136 -366.5t-376 -139.5h-86q-238 0 -375 139.5t-137 366.5zM365 506q0 -123 65.5 -196.5t185.5 -73.5h86q121 0 187.5 73.5t66.5 196.5v409q0 150 -63.5 215.5t-190.5 65.5h-86 q-127 0 -189 -65.5t-62 -215.5v-409z" />
<glyph unicode="P" horiz-adv-x="1208" d="M141 121v1161q0 63 45 107.5t113 44.5h418q174 0 295 -121t121 -287q0 -168 -122 -288t-294 -120h-322v-493q0 -53 -35.5 -89t-91.5 -36q-57 0 -92 35t-35 86zM395 858h322q66 0 114 49t48 119t-48.5 120t-113.5 50h-322v-338z" />
<glyph unicode="Q" horiz-adv-x="1314" d="M104 500v409q0 264 135.5 391t376.5 127h86q244 0 378 -125.5t134 -392.5v-409q0 -117 -43 -218.5t-120 -170.5l106 -107q43 -37 43 -94q0 -51 -36 -86t-93 -35q-27 0 -54.5 12.5t-39.5 28.5l-174 170q-47 -6 -101 -6h-86q-238 0 -375 139.5t-137 366.5zM365 500 q0 -123 65.5 -197t185.5 -74h86q121 0 187.5 74t66.5 197v409q0 150 -63.5 214.5t-190.5 64.5h-86q-127 0 -189 -64.5t-62 -214.5v-409z" />
<glyph unicode="R" horiz-adv-x="1214" d="M141 121v1161q0 63 45 107.5t113 44.5h418q174 0 295 -121t121 -287q0 -123 -72 -223.5t-187 -145.5l-28 -10l252 -473q14 -27 14 -53q0 -51 -38 -86t-91 -35q-35 0 -68.5 22.5t-48.5 47.5l-297 548h-174v-497q0 -51 -36.5 -86t-90.5 -35q-57 0 -92 35t-35 86zM395 858 h322q66 0 114 49t48 119t-48.5 120t-113.5 50h-322v-338z" />
<glyph unicode="S" horiz-adv-x="1093" d="M70 119q0 45 36.5 81t88.5 36h358q117 0 168 49t51 170q0 76 -49 106.5t-191 59.5q-57 12 -94 20t-91 25.5t-89 37t-74 51t-61.5 69.5t-37.5 92.5t-15 119.5q0 397 481 398h315q55 0 92 -37t37 -82t-37.5 -82t-89.5 -37h-317q-119 0 -174 -36t-55 -124q0 -39 11 -66.5 t26.5 -45t54.5 -30.5t70.5 -20.5t99.5 -19.5q106 -18 180 -44t137.5 -70t94 -114.5t30.5 -170.5q0 -455 -473 -455h-358q-51 0 -88 36t-37 83z" />
<glyph unicode="T" horiz-adv-x="1157" d="M35 1315q0 45 38 82t89 37h833q57 0 93 -37t36 -82t-37.5 -82t-87.5 -37h-290v-1077q0 -45 -39 -82t-86 -37q-53 0 -90 36t-37 83v1077h-295q-51 0 -89 37t-38 82z" />
<glyph unicode="U" horiz-adv-x="1298" d="M139 442v873q0 45 38 82t89 37t89 -37t38 -82v-873q0 -98 48 -155.5t116 -57.5h223q70 0 109 56.5t39 156.5v869q0 51 38 87t89 36t89 -37t38 -82v-873q0 -201 -108.5 -326.5t-295.5 -125.5h-221q-176 0 -297 120.5t-121 331.5z" />
<glyph unicode="V" horiz-adv-x="1148" d="M35 1309q0 47 37 86t88 39q102 0 133 -107l274 -985q2 -8 7.5 -8t7.5 8l278 987q31 104 141 105q55 0 85 -37t30 -84q0 -16 -2 -29l-311 -1122q-18 -68 -84 -115t-144 -47q-84 0 -147 50t-84 124l-305 1110q-4 13 -4 25z" />
<glyph unicode="W" horiz-adv-x="1468" d="M35 1300v17q0 51 41 84t88 33q53 0 89 -33t42 -78l119 -930q0 -10 6 -10t8 8l180 430q12 29 48 55.5t81 26.5t79 -20.5t46 -53.5l180 -438q4 -8 9 -8q6 0 8 10l123 942q6 39 42 69t85 30q57 0 96 -40q32 -33 32 -80q0 -10 -1 -20l-154 -1122q-10 -76 -67.5 -124 t-135.5 -48q-63 0 -117.5 37t-76.5 84l-148 364l-153 -366q-20 -47 -74.5 -83t-116.5 -36q-78 0 -135 51t-68 121z" />
<glyph unicode="X" horiz-adv-x="1103" d="M35 121q0 33 22 63l342 527l-354 557q-10 20 -10 45q0 51 35.5 86t93.5 35q68 0 110 -68l281 -434l281 444q37 57 106 58q55 0 90 -36t35 -85q0 -35 -23 -70l-333 -532l338 -527q23 -37 22 -63q0 -51 -37 -86t-92 -35q-70 0 -108 61l-279 437l-281 -441 q-14 -20 -46.5 -38.5t-63.5 -18.5q-57 0 -93 35t-36 86z" />
<glyph unicode="Y" horiz-adv-x="1089" d="M35 1311q0 49 33.5 85t93.5 38h5q70 0 103 -60l277 -459l270 457q12 23 43 42.5t70 19.5q59 -2 93 -39t34 -86q0 -29 -15 -52l-366 -616v-520q0 -51 -36 -86t-91 -35t-92 35t-37 86v520l-369 608q-16 27 -16 62z" />
<glyph unicode="Z" horiz-adv-x="1120" d="M70 193q0 63 28 104l643 883q2 4 2 8q0 8 -10 8h-538q-51 0 -88 37t-37 82t36.5 82t88.5 37h655q86 0 143.5 -56.5t57.5 -136.5q0 -57 -52 -127l-622 -860q-2 -4 -2 -6q0 -8 10 -8h533q57 0 95 -34t38 -85t-38 -86t-91 -35h-652q-86 0 -143 56.5t-57 136.5z" />
<glyph unicode="[" horiz-adv-x="636" d="M63 -78v1415q0 59 43.5 100.5t110.5 41.5h229q57 0 92 -33t35 -82q0 -47 -34.5 -82t-89.5 -35h-132v-1237h129q57 0 92 -33.5t35 -80.5q0 -49 -34.5 -83t-89.5 -34h-232q-68 0 -111 41t-43 102z" />
<glyph unicode="\" horiz-adv-x="903" d="M70 1341q0 61 55 86q25 10 51 11q72 0 100 -64l551 -1243q10 -18 11 -39q0 -49 -54 -84q-23 -16 -54.5 -16t-59 16.5t-39.5 44.5l-549 1233q-12 26 -12 55z" />
<glyph unicode="]" horiz-adv-x="636" d="M63 -104q0 47 37 80.5t93 33.5h131v1237h-136q-51 0 -88 35t-37 82q0 49 38 82t92 33h231q66 0 107.5 -41t41.5 -101v-1415q0 -61 -42 -102t-107 -41h-236q-51 0 -88 34t-37 83z" />
<glyph unicode="^" horiz-adv-x="1179" d="M94 815q0 20 10 35l355 551q16 25 52 45t75 20q35 0 71.5 -19.5t53.5 -47.5l360 -535q14 -25 14 -53q0 -55 -47 -90q-29 -20 -69 -21q-72 0 -105 48l-264 387q-8 10 -18 10q-8 0 -17 -12l-262 -398q-23 -35 -84 -35q-45 0 -76 21q-49 33 -49 94z" />
<glyph unicode="_" horiz-adv-x="1089" d="M78 -193q0 43 34.5 80t90.5 37h688q55 0 89 -34.5t34 -84.5q0 -51 -34 -84.5t-89 -33.5h-696q-51 6 -84 37.5t-33 82.5z" />
<glyph unicode="`" horiz-adv-x="626" d="M61 1350q0 23 11 43q12 29 39.5 46t60.5 17q25 0 49 -10l279 -133q68 -33 67 -101q0 -25 -12 -43q-29 -55 -94 -55q-33 0 -66 14l-264 121q-31 14 -50.5 41t-19.5 60z" />
<glyph unicode="a" horiz-adv-x="952" d="M57 322q0 133 96.5 229t237.5 96h234v62q0 49 -26 78.5t-62 29.5h-306q-53 0 -86.5 32t-33.5 79t32.5 80.5t85.5 33.5h324q137 0 227 -94t90 -233v-576q0 -59 -42 -99t-105 -40h-334q-139 0 -235.5 93.5t-96.5 228.5zM301 322q0 -39 26.5 -66t63.5 -27h234v191h-234 q-37 0 -63.5 -28.5t-26.5 -69.5z" />
<glyph unicode="b" horiz-adv-x="987" d="M96 143v1174q0 49 36 83t85 34q53 0 89 -34t36 -83v-275h219q147 0 252 -101t105 -265v-275q0 -49 -11.5 -100t-39 -106.5t-67.5 -97.5t-102.5 -69.5t-140.5 -27.5h-311q-59 0 -104.5 44t-45.5 99zM342 229h215q45 0 80 50.5t35 128.5v268q0 63 -33 102t-78 39h-219v-588 z" />
<glyph unicode="c" horiz-adv-x="872" d="M72 442v168q0 209 106.5 320.5t315.5 111.5h200q55 0 88 -33.5t33 -80.5t-33.5 -79t-87.5 -32h-200q-94 0 -136.5 -49t-42.5 -158v-168q0 -113 44 -165t135 -52h200q53 0 87 -32.5t34 -79.5t-33.5 -80t-87.5 -33h-200q-422 0 -422 442z" />
<glyph unicode="d" horiz-adv-x="987" d="M72 401v275q0 164 104.5 265t249.5 101h221v275q0 49 35 83t88 34q47 0 85 -34t38 -83v-1174q0 -55 -45 -99t-107 -44h-311q-78 0 -140.5 27.5t-102.5 69.5t-66.5 97.5t-37.5 106.5t-11 100zM317 408q0 -80 34 -129.5t79 -49.5h217v588h-221q-45 0 -77 -39t-32 -102v-268 z" />
<glyph unicode="e" horiz-adv-x="958" d="M72 487v142q0 188 116.5 300.5t292.5 112.5q199 0 309.5 -108.5t110.5 -304.5v-84q0 -59 -43 -99t-106 -40h-430q6 -98 40.5 -139.5t114.5 -41.5h273q53 0 86.5 -32.5t33.5 -79.5t-32.5 -80t-85.5 -33h-275q-229 0 -317 118.5t-88 368.5zM317 608h336v45 q-10 164 -172 164q-74 0 -115.5 -43t-48.5 -121v-45z" />
<glyph unicode="f" horiz-adv-x="733" d="M27 930q0 47 33.5 79.5t86.5 32.5h41q8 106 42 183.5t89.5 121.5t114 67.5t133.5 33.5q12 2 23 1q46 0 78 -28q39 -35 39 -86q0 -43 -27 -72.5t-68 -37.5q-90 -14 -126.5 -56.5t-51.5 -126.5h156q49 0 84 -32.5t35 -79.5t-35 -80t-84 -33h-156v-700q0 -51 -39 -84 t-86 -33q-51 0 -86 33t-35 80v704h-41q-53 0 -86.5 33t-33.5 80z" />
<glyph unicode="g" horiz-adv-x="987" d="M72 362v275q0 49 11 100t37.5 107.5t66.5 99.5t102.5 70.5t140.5 27.5h315q63 0 105.5 -40.5t42.5 -100.5v-829q0 -244 -90 -362t-314 -118h-274q-53 0 -87 34t-34 81t33 79t86 32h274q78 0 113 41t43 141h-217q-145 0 -249.5 99t-104.5 263zM317 362q0 -61 32 -99 t77 -38h221v586h-217q-45 0 -79 -49t-34 -129v-271z" />
<glyph unicode="h" horiz-adv-x="1013" d="M98 115v1202q0 49 34 83t87 34t89 -34t36 -83v-275h223q147 0 252 -100t105 -266v-561q0 -49 -37 -82t-89.5 -33t-86 33t-33.5 82v559q0 66 -33 104.5t-78 38.5h-223v-702q0 -49 -36 -82t-89 -33t-87 33t-34 82z" />
<glyph unicode="i" horiz-adv-x="446" d="M109 115v813q0 49 32.5 82.5t87.5 33.5q53 0 88 -33.5t35 -82.5v-813q0 -49 -34.5 -82t-88.5 -33q-55 0 -87.5 33t-32.5 82zM109 1257v35q0 49 32.5 83t87.5 34q53 0 88 -34t35 -83v-35q0 -47 -34.5 -80.5t-88.5 -33.5q-55 0 -87.5 33.5t-32.5 80.5z" />
<glyph unicode="j" horiz-adv-x="446" d="M-66 -221q0 39 21 65l96 138q55 86 55 194v750q0 49 35 82.5t90 33.5q51 0 86 -33.5t35 -82.5v-752q0 -180 -94 -315l-108 -156q-27 -39 -91 -39q-47 0 -79 23q-46 33 -46 92zM106 1257v35q0 49 35 83t90 34q51 0 86 -34t35 -83v-35q0 -47 -34.5 -79.5t-86.5 -32.5 q-55 0 -90 32.5t-35 79.5z" />
<glyph unicode="k" horiz-adv-x="917" d="M109 115v1202q0 49 33.5 83t87 34t89 -34t35.5 -83v-639h39l252 305q35 41 96 41q49 0 82 -27q41 -35 41 -82q0 -41 -30 -79l-238 -283l281 -375q16 -31 16 -63q0 -49 -37 -84q-33 -31 -84 -31q-68 0 -100 45l-279 379h-39v-305q0 -51 -35.5 -85t-89 -34t-87 34t-33.5 81 z" />
<glyph unicode="l" horiz-adv-x="436" d="M109 117v1200q0 49 33.5 83t88.5 34q53 0 88 -34t35 -85v-1196q0 -51 -34.5 -85t-88.5 -34q-55 0 -88.5 34t-33.5 83z" />
<glyph unicode="m" horiz-adv-x="1492" d="M96 117v780q0 57 42 101t108 44h809q147 0 251.5 -101t104.5 -265v-559q0 -47 -35 -82t-88 -35t-87 35t-34 82v559q0 63 -32.5 102t-79.5 39h-181v-698q0 -51 -34.5 -85t-85.5 -34q-55 0 -89 35t-34 82v700h-291v-698q0 -51 -35 -85t-90 -34q-53 0 -86 35t-33 82z" />
<glyph unicode="n" horiz-adv-x="1001" d="M96 117v780q0 57 42 101t108 44h319q147 0 252 -101t105 -265v-559q0 -47 -37 -82t-90 -35q-51 0 -85 36t-34 81v559q0 63 -32 102t-79 39h-223v-698q0 -51 -36 -85t-89 -34t-87 35t-34 82z" />
<glyph unicode="o" horiz-adv-x="995" d="M72 369v286q0 168 104.5 277.5t267.5 109.5h109q162 0 266.5 -109.5t104.5 -277.5v-286q0 -168 -104.5 -269.5t-266.5 -101.5h-109q-162 0 -267 101.5t-105 269.5zM317 350q0 -63 36 -100t91 -37h109q55 0 92 37t37 100v330q0 70 -38 109.5t-91 39.5h-109 q-53 0 -90 -39.5t-37 -109.5v-330z" />
<glyph unicode="p" horiz-adv-x="997" d="M109 -248v1145q0 57 45 101t104 44h311q76 0 139.5 -27.5t103.5 -70.5t67.5 -98t39 -107.5t11.5 -101.5v-275q0 -164 -104.5 -263t-252.5 -99h-219v-248q0 -49 -35.5 -83t-89.5 -34q-49 0 -84.5 34t-35.5 83zM354 225h219q45 0 78 38t33 99v271q0 78 -35 128t-80 50h-215 v-586z" />
<glyph unicode="q" horiz-adv-x="987" d="M72 362v275q0 49 11 100t37.5 107.5t66.5 99.5t102.5 70.5t140.5 27.5h311q61 0 106.5 -44t45.5 -101v-1143q0 -47 -38 -80.5t-85 -33.5q-53 0 -88 32.5t-35 81.5v246h-221q-145 0 -249.5 99t-104.5 263zM317 362q0 -61 33 -99t76 -38h221v586h-217q-45 0 -79 -49 t-34 -129v-271z" />
<glyph unicode="r" horiz-adv-x="722" d="M96 115v870q0 74 74 74h47q66 0 80 -60q84 59 221 60h55q55 0 89 -33t34 -80t-33.5 -79.5t-84.5 -32.5h-60q-178 0 -178 -193v-526q0 -49 -35 -82t-88 -33q-55 0 -88 33t-33 82z" />
<glyph unicode="s" horiz-adv-x="925" d="M59 727q0 156 110 234.5t269 78.5h273q53 0 89 -33.5t36 -78.5q0 -49 -36 -81t-87 -32h-275q-131 0 -131 -86q0 -39 31 -55.5t123 -28.5l59 -8q348 -53 348 -311q0 -326 -409 -326h-252q-51 0 -86 31.5t-35 81.5q0 47 35 79.5t86 32.5h252q84 0 123 22.5t39 76.5 q0 31 -34 55t-93 31l-78 10q-357 43 -357 307z" />
<glyph unicode="t" horiz-adv-x="757" d="M27 926q0 49 35.5 82.5t89.5 33.5h41v103q0 47 35.5 81t88 34t87 -34t34.5 -81v-103h162q55 0 90 -33.5t35 -82.5q0 -47 -35 -81t-88 -34h-164v-465q0 -76 20.5 -104.5t76.5 -28.5h67q53 0 88 -34t35 -83t-35 -81.5t-88 -32.5h-67q-342 0 -342 364v465h-41q-53 0 -89 34 t-36 81z" />
<glyph unicode="u" horiz-adv-x="991" d="M84 362v564q0 43 35 79.5t88 36.5t88 -36.5t35 -79.5v-564q0 -61 32.5 -99t77.5 -38h224v697q0 47 33.5 83.5t86.5 36.5t89 -36.5t36 -79.5v-783q0 -57 -42 -100t-109 -43h-318q-147 0 -251.5 99t-104.5 263z" />
<glyph unicode="v" horiz-adv-x="911" d="M27 932q0 43 36.5 76.5t86.5 33.5q45 0 77.5 -23.5t42.5 -57.5l185 -693q2 -8 7 -8t7 8l176 686q8 35 42 61.5t79 26.5q59 0 89 -34.5t30 -83.5q0 -25 -6 -45l-220 -738q-18 -61 -73.5 -101t-130.5 -40q-70 0 -126.5 40t-74.5 101l-225 772q-2 11 -2 19z" />
<glyph unicode="w" horiz-adv-x="1423" d="M27 932q0 49 36.5 79.5t86.5 30.5q43 0 75.5 -26.5t40.5 -61.5l146 -587q2 -8 7 -8.5t7 8.5l154 548q12 43 47 64.5t83 21.5t83.5 -22.5t46.5 -60.5l153 -551q2 -10 7.5 -10.5t9.5 10.5l145 561q8 47 42 80.5t81 33.5q53 0 87 -33.5t34 -86.5q0 -23 -6 -45l-183 -725 q-16 -66 -74.5 -109t-133 -43t-131 41t-72.5 104l-88 326l-88 -326q-18 -63 -74.5 -104t-132.5 -41t-132.5 43t-72.5 109l-180 751q-4 17 -4 29z" />
<glyph unicode="x" horiz-adv-x="860" d="M31 934q0 59 51 90q31 18 68 18q63 0 98 -49l184 -270l176 264q37 55 105 55q43 0 75 -24q43 -33 43 -84q0 -41 -26 -82l-230 -336l228 -334q25 -37 24 -73q0 -47 -39 -80q-33 -29 -79 -29q-68 0 -103 47l-174 260l-176 -260q-33 -47 -96 -47q-45 0 -78 25q-43 33 -43 86 q0 37 20 65l228 340l-234 348q-22 33 -22 70z" />
<glyph unicode="y" horiz-adv-x="911" d="M27 928q0 43 32.5 78.5t87.5 35.5q45 0 76 -24.5t43 -59.5l178 -571q2 -8 7.5 -8t9.5 8l180 563q12 43 46 67.5t75 24.5q59 0 91 -32.5t32 -77.5q0 -16 -4 -33l-392 -1233q-10 -33 -40.5 -56.5t-73.5 -23.5q-57 0 -89 35t-32 80q0 14 2 29l94 293l-16 8q-25 18 -37 34.5 t-23 47.5l-243 790q-4 13 -4 25z" />
<glyph unicode="z" horiz-adv-x="907" d="M59 141q0 55 31 90l436 584h-317q-53 0 -86 34t-33 79q0 49 33 81.5t86 32.5h485q66 0 109 -40.5t43 -102.5q0 -43 -33 -88l-430 -586h342q55 0 90 -32.5t35 -81t-34 -80t-87 -31.5h-520q-63 0 -106.5 40t-43.5 101z" />
<glyph unicode="{" horiz-adv-x="899" d="M72 633q0 43 34.5 77.5t90.5 34.5q51 0 86.5 40t35.5 106v446q0 59 44.5 100.5t105.5 41.5h233q57 0 92 -33t35 -82q0 -47 -34.5 -82t-89.5 -35h-132v-356q0 -160 -114 -262q115 -102 114 -260v-359h129q57 0 92 -33.5t35 -80.5q0 -49 -34.5 -83t-89.5 -34h-236 q-61 0 -105.5 42t-44.5 101v447q0 66 -35.5 104.5t-88.5 38.5q-49 0 -86 37t-37 84z" />
<glyph unicode="|" horiz-adv-x="366" d="M55 -49v1390q0 51 36 85t93 34q53 0 90 -34.5t37 -88.5v-1384q0 -51 -36.5 -87t-90.5 -36q-57 0 -93 35t-36 86z" />
<glyph unicode="}" horiz-adv-x="899" d="M72 -104q0 47 34.5 80.5t90.5 33.5h129v359q0 158 114 262q-115 104 -114 260v356h-131q-55 0 -89 35t-34 82q0 49 34.5 82t90.5 33h229q66 0 110 -41t44 -101v-446q0 -66 35.5 -106t86.5 -40q55 0 91 -34.5t36 -77.5q0 -47 -36.5 -84t-87.5 -37q-55 0 -90 -39t-35 -104 v-447q0 -59 -44 -101t-110 -42h-231q-55 0 -89 34t-34 83z" />
<glyph unicode="~" horiz-adv-x="1208" d="M82 342q2 135 99.5 232.5t238.5 97.5q90 0 172 -48.5t123 -119.5q27 -45 73 -45q35 0 59.5 24.5t31.5 69.5q8 57 40.5 88t84.5 31q49 0 86.5 -35t37.5 -84q0 -133 -101 -231.5t-239 -98.5q-88 0 -169.5 47t-122.5 117q-31 49 -76 49q-35 0 -61.5 -27.5t-26.5 -68.5 q0 -45 -37 -81t-88 -36q-49 0 -87 36t-38 83z" />
<glyph unicode="&#xa1;" horiz-adv-x="364" d="M55 -219v805q0 49 35 84t92 35q53 0 90 -35t37 -84v-805q0 -51 -36.5 -85t-90.5 -34q-57 0 -92 34t-35 85zM55 901v78q0 51 35 86t92 35q53 0 90 -35t37 -86v-78q0 -51 -36.5 -85t-90.5 -34q-57 0 -92 34t-35 85z" />
<glyph unicode="&#xa2;" horiz-adv-x="903" d="M70 442v168q0 199 95 309.5t284 120.5v56q0 35 24.5 59.5t63.5 24.5q37 0 63.5 -25t26.5 -57v-56h65q53 0 87 -33.5t34 -80.5t-34 -79t-87 -32h-65v-592h65q53 0 87 -32.5t34 -79.5t-34 -80t-87 -33h-65v-53q0 -33 -27 -57.5t-63 -24.5q-39 0 -63.5 23.5t-24.5 58.5v55 q-379 20 -379 440zM311 442q0 -193 138 -213v584q-72 -10 -105 -59t-33 -144v-168z" />
<glyph unicode="&#xa3;" horiz-adv-x="1019" d="M61 770q0 49 36 82t89 33h50v147q0 119 21.5 198t65.5 123t103 62.5t143 18.5h179q53 0 89.5 -34t36.5 -81q0 -49 -35.5 -83t-88.5 -34h-181q-45 0 -64.5 -32.5t-19.5 -137.5v-147h195q53 0 89 -33t36 -82q0 -47 -35 -81t-88 -34h-197v-424h334q57 0 91 -33.5t34 -80.5 q0 -49 -33.5 -83t-87.5 -34h-626q-51 0 -88 34t-37 83q0 47 36.5 80.5t88.5 33.5h39v424h-46q-55 0 -92 33t-37 82z" />
<glyph unicode="&#xa5;" horiz-adv-x="1091" d="M37 1311q0 66 49 100q35 23 76 23q76 0 110 -60l277 -459l268 457q37 61 113 62q47 0 82 -27q45 -37 45 -96q0 -31 -13 -54l-190 -321h61q53 0 90 -35t37 -84q0 -51 -36.5 -84t-90.5 -33h-202l-35 -59v-59h237q53 0 90 -35t37 -86q0 -49 -36.5 -82t-90.5 -33h-237v-225 q0 -51 -37 -86t-92 -35t-92 35t-37 86v225h-246q-51 6 -85 37t-34 80q0 47 36 83t91 36h238v59l-35 59h-213q-51 6 -84 38t-33 81q0 45 36 81t91 36h60l-189 313q-16 27 -16 62z" />
<glyph unicode="&#xa6;" horiz-adv-x="364" d="M55 827l2 537q0 49 35 83t90.5 34t91 -34t35.5 -83v-545q-6 -47 -41 -78.5t-86 -31.5t-89 34.5t-38 83.5zM57 -47v536q0 49 35 84t90.5 35t91 -33.5t35.5 -85.5v-536q0 -51 -30.5 -85t-96.5 -34q-51 0 -88 35t-37 84z" />
<glyph unicode="&#xa7;" horiz-adv-x="974" d="M84 547q0 115 82 188q-82 72 -82 193q0 84 31.5 144.5t87 93t119 47t141.5 14.5h270q53 0 89 -33t36 -82q0 -45 -35 -78t-86 -33h-274q-70 0 -100.5 -15t-30.5 -54q0 -35 33.5 -53.5t119.5 -30.5l60 -8q346 -57 346 -310q0 -131 -72 -204q72 -76 72 -179 q0 -326 -408 -325h-252q-51 0 -85.5 32.5t-34.5 80t34.5 79t85.5 31.5h252q84 0 122 22.5t38 77.5q0 31 -32.5 54.5t-92.5 31.5l-78 11q-356 43 -356 305zM332 549q0 -37 40 -54.5t113 -27.5l84 -12q20 -2 37 -9q37 31 37 82q0 35 -35 56.5t-88 27.5l-78 11 q-47 4 -78.5 -13.5t-31.5 -60.5z" />
<glyph unicode="&#xa8;" horiz-adv-x="675" d="M61 1309v47q0 47 32 77.5t83 30.5t83 -30.5t32 -77.5v-47q0 -45 -32 -77t-83 -32t-83 32t-32 77zM387 1309v47q0 47 32 77.5t83 30.5t82.5 -30.5t31.5 -77.5v-47q0 -45 -31.5 -77t-82.5 -32t-83 32t-32 77z" />
<glyph unicode="&#xa9;" horiz-adv-x="1251" d="M61 848q0 242 163 414t400.5 172t401.5 -172t164 -414q0 -240 -164 -411t-401.5 -171t-400.5 171t-163 411zM227 849q0 -171 115 -294t283 -123t284.5 123t116.5 293t-116.5 294t-284.5 124t-283 -123t-115 -294zM377 848q0 160 51 244t190 84h103q33 0 56.5 -23 t23.5 -55q0 -35 -22.5 -58.5t-57.5 -23.5h-103q-55 0 -70.5 -37t-15.5 -131q0 -86 17.5 -125t68.5 -39h103q35 0 57.5 -22.5t22.5 -57.5q0 -33 -22.5 -54.5t-57.5 -21.5h-103q-137 0 -189 82t-52 238z" />
<glyph unicode="&#xaa;" horiz-adv-x="710" d="M88 870q0 92 63.5 154.5t155.5 62.5h142v27q0 61 -39 62h-205q-39 0 -62.5 22.5t-23.5 56.5q0 37 23.5 60.5t62.5 23.5h205q90 0 148 -62.5t58 -158.5v-352q0 -45 -31.5 -81t-78.5 -36h-199q-92 0 -155.5 64.5t-63.5 156.5zM256 870q0 -20 14.5 -36.5t36.5 -16.5h142v103 h-142q-23 0 -37 -15t-14 -35z" />
<glyph unicode="&#xab;" horiz-adv-x="1126" d="M76 549q0 76 80 137l206 162q27 20 68 20q68 0 105 -49q20 -29 20 -67q0 -55 -39 -86l-133 -101q-10 -8 -10 -17t10 -18l123 -96q49 -37 49 -94q0 -41 -27 -72q-39 -47 -94 -47q-41 0 -72 27l-227 188q-59 52 -59 113zM571 549q0 35 18.5 69.5t45.5 55.5l217 170 q29 23 74 22q61 0 98 -41q29 -31 29 -73q0 -53 -45 -86l-129 -101q-10 -6 -10.5 -15t10.5 -18l125 -102q49 -37 49 -90q0 -41 -31 -74q-37 -41 -94 -41q-45 0 -78 27l-213 180q-66 56 -66 117z" />
<glyph unicode="&#xac;" horiz-adv-x="1705" />
<glyph unicode="&#xad;" horiz-adv-x="888" d="M72 537q0 45 35.5 79.5t89.5 34.5h497q55 0 90 -33.5t35 -82.5q0 -51 -34.5 -85t-90.5 -34h-495q-127 0 -127 121z" />
<glyph unicode="&#xae;" horiz-adv-x="1251" d="M63 848q0 244 161 415t400.5 171t401.5 -171t162 -415t-162 -414t-401.5 -170t-400.5 170t-161 414zM227 848q0 -174 114 -294t284 -120t284.5 120t114.5 294t-114.5 295t-284.5 121t-284 -121t-114 -295zM408 604v486q0 35 26.5 60.5t63.5 25.5h168q90 0 149 -57.5 t59 -141.5q0 -59 -29.5 -106.5t-80.5 -71.5l84 -164q8 -16 8 -33q0 -29 -25 -51q-20 -18 -47 -19q-47 0 -67 39l-111 207h-51v-174q0 -29 -22.5 -50.5t-51.5 -21.5q-31 0 -52 21.5t-21 50.5zM555 920h117q25 0 41 15t16 42t-18.5 43t-44.5 16h-111v-116z" />
<glyph unicode="&#xaf;" horiz-adv-x="813" d="M61 1411q0 53 32 84t77 31h477q47 0 78 -31t31 -84q0 -49 -31 -82t-78 -33h-477q-45 0 -77 33t-32 82z" />
<glyph unicode="&#xb0;" horiz-adv-x="804" d="M61 1095.5q0 147.5 94.5 241t245.5 93.5q154 0 248 -93.5t94 -241t-94 -239.5t-248 -92q-152 0 -246 92t-94 239.5zM299 1095.5q0 -53.5 28.5 -85t73.5 -31.5q51 0 81 30.5t30 86t-29.5 85t-81.5 29.5q-45 0 -73.5 -30.5t-28.5 -84z" />
<glyph unicode="&#xb1;" horiz-adv-x="1089" d="M78 147q0 47 34.5 83t90.5 36h688q55 0 89 -35.5t34 -85.5q0 -51 -34 -83.5t-89 -32.5h-635q-178 -1 -178 118zM78 752q0 45 34.5 80.5t90.5 35.5h211v131q4 45 41 78t88 33t87 -33t36 -82v-127h225q55 0 89 -33.5t34 -84.5q0 -49 -34 -84t-89 -35h-225v-137 q0 -45 -37 -79t-90 -34q-49 0 -87 36t-38 85v129h-224q-47 0 -79.5 36t-32.5 85z" />
<glyph unicode="&#xb2;" horiz-adv-x="712" d="M94 688q0 33 21 55l235 228q74 72 74 119v28q0 25 -22.5 39t-57.5 14h-158q-33 0 -58.5 26t-25.5 56q0 33 26 60.5t58 27.5h158q106 0 175 -61t69 -162v-28q0 -78 -29 -129.5t-88 -110.5l-90 -82h151q33 0 59.5 -27.5t26.5 -58.5q0 -33 -27.5 -58.5t-58.5 -25.5h-346 q-35 0 -63.5 27.5t-28.5 62.5z" />
<glyph unicode="&#xb3;" horiz-adv-x="688" d="M90 686q0 25 26.5 53.5t61.5 28.5h193q23 0 37 15.5t14 43.5q0 29 -14.5 48.5t-36.5 19.5h-117q-39 0 -62.5 23.5t-23.5 60.5q0 33 23.5 59.5t60.5 26.5h125q20 0 32.5 12.5t12.5 34.5q0 27 -14.5 43t-36.5 16h-193q-37 0 -62.5 26t-25.5 63q0 27 26.5 53t61.5 26h193 q94 0 156.5 -64.5t62.5 -162.5q0 -76 -51 -135q51 -66 51 -150q0 -100 -62.5 -164.5t-156.5 -64.5h-193q-37 0 -62.5 25.5t-25.5 62.5z" />
<glyph unicode="&#xb4;" horiz-adv-x="626" d="M61 1214q0 66 68 99l279 133q25 10 49 10q33 0 59.5 -17.5t40.5 -45.5q10 -23 10 -45q0 -66 -90 -107l-244 -113q-31 -14 -63 -14q-68 0 -96 55q-13 20 -13 45z" />
<glyph unicode="&#xb6;" horiz-adv-x="1312" d="M84 1016q0 51 11 105.5t39 111.5t69 101t104.5 72t143.5 28h649q57 0 93 -35t36 -84t-35 -84t-90 -35h-41v-1350q0 -53 -36 -87.5t-89 -34.5q-55 0 -91 34.5t-36 83.5v1354h-96v-1354q0 -49 -37 -83.5t-90 -34.5t-88 34.5t-35 83.5v801h-37q-147 0 -245.5 101.5 t-98.5 271.5z" />
<glyph unicode="&#xb7;" horiz-adv-x="372" d="M57 592v72q0 49 36 85.5t93 36.5q53 0 92 -36.5t39 -85.5v-68q0 -51 -38.5 -88t-92.5 -37q-57 0 -93 36t-36 85z" />
<glyph unicode="&#xb8;" horiz-adv-x="495" d="M61 -313q0 33 19.5 52t48.5 19h74q37 0 37 45q0 41 -39 41q-41 4 -62.5 31t-21.5 68v137h149v-107q84 0 127 -45t43 -121q0 -92 -64.5 -141t-164.5 -49h-72q-35 0 -54.5 19.5t-19.5 50.5z" />
<glyph unicode="&#xb9;" horiz-adv-x="538" d="M96 1153q0 31 35 57l154 115q23 16 59 16q43 0 70.5 -27.5t27.5 -72.5v-553q0 -37 -24.5 -61.5t-59.5 -24.5q-33 0 -60.5 24.5t-27.5 59.5v426l-37 -25q-31 -18 -59 -18q-35 0 -57 31q-21 28 -21 53z" />
<glyph unicode="&#xba;" horiz-adv-x="784" d="M96 999q0 188 72 264t225 76q154 0 225.5 -75.5t71.5 -264.5q0 -190 -71.5 -270t-225.5 -80q-152 0 -224.5 80t-72.5 270zM270 999q0 -109 27 -144.5t96.5 -35.5t95 35t25.5 145q0 104 -25.5 138t-95 34t-96.5 -34t-27 -138z" />
<glyph unicode="&#xbb;" horiz-adv-x="1126" d="M78 340q0 53 49 90l123 102q10 8 10 17.5t-10 15.5l-129 101q-43 33 -43 86q0 43 26 73q37 41 101 41q45 0 74 -22l215 -170q29 -20 47 -55t18 -70q0 -61 -65 -117l-215 -180q-31 -27 -78 -27q-55 0 -92 41q-31 33 -31 74zM573 752q0 39 23 67q37 49 102 49q41 0 68 -20 l209 -162q80 -63 80 -137q0 -61 -60 -113l-227 -188q-31 -27 -72 -27q-55 0 -94 47q-27 31 -27 72q0 57 48 92l125 98q10 8 10 17.5t-13 17.5l-131 101q-41 31 -41 86z" />
<glyph unicode="&#xbc;" horiz-adv-x="1339" d="M57 1153q0 31 35 57l154 115q23 16 57 16q45 0 72.5 -27.5t27.5 -72.5v-553q0 -37 -24.5 -61.5t-59.5 -24.5t-61.5 24.5t-26.5 59.5v426l-36 -25q-31 -18 -60 -18q-35 0 -57 31q-21 28 -21 53zM270 80q0 16 6 31l541 1212q25 55 86 55q16 0 33 -4q59 -18 59 -80 q0 -18 -8 -37l-543 -1222q-18 -43 -69 -43q-27 0 -56 12q-49 23 -49 76zM702 242q0 25 9 49l151 379q25 61 86 61q20 0 39 -8q43 -20 43 -70q0 -20 -8 -37l-121 -301q-2 -6 -2 -10q0 -18 21 -18h73v80q0 35 24.5 59.5t57.5 24.5q37 0 63.5 -26t26.5 -56v-82h37 q33 0 57.5 -24.5t24.5 -59.5t-23.5 -59.5t-58.5 -24.5h-37v-41q0 -37 -26.5 -61.5t-63.5 -24.5q-31 0 -56.5 25.5t-25.5 58.5v43h-168q-57 0 -90 37t-33 86z" />
<glyph unicode="&#xbd;" horiz-adv-x="1429" d="M63 1153q0 31 35 57l154 115q23 16 59 16q43 0 71 -27.5t28 -72.5v-553q0 -37 -24 -61.5t-60 -24.5q-33 0 -60.5 24.5t-27.5 59.5v426l-37 -25q-31 -18 -60 -18q-35 0 -57 31q-21 28 -21 53zM276 80q0 16 7 31l540 1212q25 55 86 55q16 0 35 -4q57 -18 57 -80 q0 -18 -6 -37l-544 -1222q-18 -43 -68 -43q-29 0 -57 12q-50 23 -50 76zM842 92q0 33 20 53l236 228q74 72 73 121v26q0 25 -22.5 39t-56.5 14h-158q-33 0 -58.5 27t-25.5 57q0 31 25.5 58.5t58.5 27.5h158q106 0 174.5 -60t68.5 -163v-26q0 -78 -28.5 -129.5t-87.5 -112.5 l-91 -82h152q33 0 60.5 -27.5t27.5 -58.5q0 -33 -28.5 -58.5t-59.5 -25.5h-346q-35 0 -63.5 27.5t-28.5 64.5z" />
<glyph unicode="&#xbe;" horiz-adv-x="1445" d="M74 686q0 27 26.5 55.5t59.5 28.5h194q23 0 37.5 15.5t14.5 41.5q0 31 -15.5 49.5t-36.5 18.5h-118q-39 0 -61.5 24.5t-22.5 61.5q0 33 23.5 58.5t57.5 25.5h127q20 0 33 13.5t13 35.5q0 27 -14.5 43.5t-37.5 16.5h-194q-35 0 -60.5 24.5t-25.5 61.5q0 27 26.5 54 t59.5 27h194q92 0 155.5 -65.5t63.5 -161.5q0 -76 -51 -137q51 -63 51 -150q0 -98 -63.5 -162.5t-155.5 -64.5h-194q-35 0 -60.5 24.5t-25.5 61.5zM381 80q0 16 6 31l541 1212q25 55 86 55q18 0 35 -4q59 -18 59 -80q0 -18 -8 -37l-545 -1222q-18 -43 -68 -43q-27 0 -57 12 q-49 23 -49 76zM813 242q0 27 8 49l152 379q27 61 88 61q20 0 37 -8q43 -20 43 -70q0 -20 -6 -37l-123 -301q-2 -6 -2 -10q0 -18 22 -18h72v80q0 35 25.5 59.5t58.5 24.5q37 0 62.5 -26t25.5 -56v-82h37q33 0 58.5 -24.5t25.5 -59.5t-23.5 -59.5t-60.5 -24.5h-37v-41 q0 -37 -25.5 -61.5t-62.5 -24.5q-33 0 -58.5 25.5t-25.5 58.5v43h-166q-59 0 -92 37t-33 86z" />
<glyph unicode="&#xbf;" horiz-adv-x="948" d="M74 20q0 176 164 322l129 119q37 37 36 69v41q0 51 36 85t91 34q53 0 89 -32.5t36 -84.5v-43q0 -82 -33.5 -138t-99.5 -118l-112 -102q-80 -74 -80 -152q0 -74 42 -108.5t132 -34.5h244q57 0 91.5 -35t34.5 -84q0 -45 -33.5 -80.5t-88.5 -35.5h-248q-201 0 -315.5 98 t-114.5 280zM399 895v74q0 51 39 87t90 36q55 0 93 -37t38 -84v-76q0 -47 -38.5 -83t-92.5 -36q-51 0 -90 36t-39 83z" />
<glyph unicode="&#xc0;" d="M35 119q0 16 4 35l340 1124q23 68 84 112t141 44q76 0 136.5 -44t82.5 -114l344 -1141q2 -12 2 -22q0 -43 -35.5 -78t-93.5 -35q-41 0 -77.5 26.5t-47.5 61.5l-94 297h-440l-92 -293q-10 -39 -47 -65.5t-80 -26.5q-57 0 -92 35t-35 84zM348 1741q0 23 12 43q12 29 39 46 t60 17q27 0 51 -10l276 -133q68 -33 68 -100q0 -25 -10 -43q-31 -55 -96 -56q-33 0 -66 15l-262 120q-31 14 -51.5 41t-20.5 60zM455 625h295l-140 462q-2 8 -7 8.5t-7 -8.5z" />
<glyph unicode="&#xc1;" d="M35 119q0 16 4 35l340 1124q23 68 84 112t141 44q76 0 136.5 -44t82.5 -114l344 -1141q2 -12 2 -22q0 -43 -35.5 -78t-93.5 -35q-41 0 -77.5 26.5t-47.5 61.5l-94 297h-440l-92 -293q-10 -39 -47 -65.5t-80 -26.5q-57 0 -92 35t-35 84zM348 1606q0 66 70 98l278 133 q23 10 47 10q33 0 60.5 -17.5t42.5 -45.5q10 -23 10 -45q0 -66 -90 -107l-244 -112q-31 -14 -63 -15q-68 0 -99 56q-12 20 -12 45zM455 625h295l-140 462q-2 8 -7 8.5t-7 -8.5z" />
<glyph unicode="&#xc2;" d="M35 119q0 16 4 35l340 1124q23 68 84 112t141 44q76 0 136.5 -44t82.5 -114l344 -1141q2 -12 2 -22q0 -43 -35.5 -78t-93.5 -35q-41 0 -77.5 26.5t-47.5 61.5l-94 297h-440l-92 -293q-10 -39 -47 -65.5t-80 -26.5q-57 0 -92 35t-35 84zM315 1585q0 31 17 51l149 166 q45 55 121 56q31 0 62.5 -16.5t48.5 -37.5l149 -159q25 -31 25 -68q0 -39 -29 -68q-35 -33 -84 -32q-53 0 -88 39l-65 75q-8 8 -17.5 8t-17.5 -8l-74 -80q-31 -35 -86 -34q-47 0 -78 28q-33 31 -33 80zM455 625h295l-140 462q-2 8 -7 8.5t-7 -8.5z" />
<glyph unicode="&#xc3;" d="M35 119q0 16 4 35l340 1124q23 68 84 112t141 44q76 0 136.5 -44t82.5 -114l344 -1141q2 -12 2 -22q0 -43 -35.5 -78t-93.5 -35q-41 0 -77.5 26.5t-47.5 61.5l-94 297h-440l-92 -293q-10 -39 -47 -65.5t-80 -26.5q-57 0 -92 35t-35 84zM262 1667q0 47 43 84 q100 90 193 92q35 0 63.5 -9t38.5 -16.5t33 -23.5q2 0 12 -8t14.5 -11t13.5 -9.5t14 -8.5t13.5 -4t16.5 -2q16 2 49 35q25 27 61 26q51 0 86 -38q27 -29 27 -69t-27 -73q-104 -98 -190 -102q-16 0 -31.5 1t-30 5t-22.5 6t-21.5 11.5t-17.5 11.5t-18.5 13t-16.5 13 q-47 35 -65 33q-16 0 -62 -39q-27 -20 -61 -20q-49 0 -82 32q-33 31 -33 70zM455 625h295l-140 462q-2 8 -7 8.5t-7 -8.5z" />
<glyph unicode="&#xc4;" d="M35 119q0 16 4 35l340 1124q23 68 84 112t141 44q76 0 136.5 -44t82.5 -114l344 -1141q2 -12 2 -22q0 -43 -35.5 -78t-93.5 -35q-41 0 -77.5 26.5t-47.5 61.5l-94 297h-440l-92 -293q-10 -39 -47 -65.5t-80 -26.5q-57 0 -92 35t-35 84zM324 1700v47q0 47 32.5 77.5 t81.5 30.5q51 0 84 -30.5t33 -77.5v-47q0 -45 -33 -77t-84 -32q-49 0 -81.5 32t-32.5 77zM455 625h295l-140 462q-2 8 -7 8.5t-7 -8.5zM651 1700v47q0 47 32 77.5t83 30.5q49 0 82 -30.5t33 -77.5v-47q0 -45 -33 -77t-82 -32q-51 0 -83 32t-32 77z" />
<glyph unicode="&#xc5;" d="M35 119q0 16 4 35l340 1124q16 49 56 88t95 55q-74 25 -121 86.5t-47 137.5q0 92 71 160.5t169 68.5t169 -68.5t71 -160.5q0 -76 -47 -137.5t-121 -84.5q53 -18 93 -56t56 -91l344 -1141q2 -12 2 -22q0 -43 -35.5 -78t-93.5 -35q-41 0 -77.5 26.5t-47.5 61.5l-94 297 h-440l-92 -293q-10 -39 -47 -65.5t-80 -26.5q-57 0 -92 35t-35 84zM455 625h295l-140 462q-2 8 -7 8.5t-7 -8.5zM557 1642q0 -23 13.5 -38t33 -15t32.5 15.5t13 37.5q0 23 -13 39.5t-32.5 16.5t-33 -16.5t-13.5 -39.5z" />
<glyph unicode="&#xc6;" horiz-adv-x="1599" d="M35 119q0 16 4 35l340 1124q23 68 84 112t141 44q45 0 88 -17q35 16 76 17h631q59 0 96 -35t37 -86t-36 -85t-93 -34h-541v-332h430q57 0 95 -34.5t38 -84.5q0 -53 -37.5 -87.5t-91.5 -34.5h-434v-381h537q59 0 96 -34t37 -85t-36 -86t-93 -35h-635q-70 0 -116 44 t-46 108v233h-225l-92 -293q-10 -39 -47 -65.5t-80 -26.5q-57 0 -92 35t-35 84zM455 625h151v454q-2 10 -6 11h-2q-2 0 -6 -13z" />
<glyph unicode="&#xc7;" horiz-adv-x="1128" d="M104 506v409q0 266 134.5 392.5t377.5 126.5h318q49 0 88 -37t39 -82t-39 -82t-88 -37h-318q-129 0 -192.5 -65.5t-63.5 -215.5v-409q0 -123 68 -196.5t188 -73.5h314q55 0 93 -35t38 -82t-39 -83t-88 -36h-318q-16 0 -32 2v-37q86 0 128 -44t42 -122q0 -92 -64.5 -141 t-165.5 -49h-71q-35 0 -54.5 19.5t-19.5 49.5q0 33 19.5 52.5t47.5 19.5h74q39 0 39 43t-41 43q-41 4 -63.5 31t-22.5 67v93q-156 47 -242 174t-86 305z" />
<glyph unicode="&#xc8;" horiz-adv-x="1134" d="M141 152v1130q0 63 46 107.5t116 44.5h631q59 0 96 -35t37 -86t-36 -85t-93 -34h-541v-332h430q57 0 95.5 -34.5t38.5 -84.5q0 -53 -38 -87.5t-92 -34.5h-434v-381h537q59 0 96 -34t37 -85t-36 -86t-93 -35h-635q-70 0 -116 44.5t-46 107.5zM322 1761q0 23 10 43 q12 29 39.5 46.5t60.5 17.5q25 0 49 -10l279 -134q68 -33 67 -100q0 -25 -12 -43q-31 -57 -94 -57q-33 0 -66 16l-264 121q-31 14 -50 40.5t-19 59.5z" />
<glyph unicode="&#xc9;" horiz-adv-x="1134" d="M141 152v1130q0 63 46 107.5t114 44.5h633q59 0 96 -35t37 -86t-36 -85t-93 -34h-541v-332h430q57 0 95.5 -34.5t38.5 -84.5q0 -53 -38 -87.5t-92 -34.5h-434v-381h537q59 0 96 -34t37 -85t-36 -86t-93 -35h-637q-68 0 -114 44.5t-46 107.5zM322 1626q0 66 67 98l279 134 q25 10 49 10q33 0 59.5 -17.5t40.5 -46.5q10 -23 10 -45q0 -66 -90 -106l-243 -113q-31 -14 -64 -14q-68 0 -96 55q-12 20 -12 45z" />
<glyph unicode="&#xca;" horiz-adv-x="1134" d="M141 152v1130q0 63 46 107.5t116 44.5h631q59 0 96 -35t37 -86t-36 -85t-93 -34h-541v-332h430q57 0 95.5 -34.5t38.5 -84.5q0 -53 -38 -87.5t-92 -34.5h-434v-381h537q59 0 96 -34t37 -85t-36 -86t-93 -35h-635q-70 0 -116 44.5t-46 107.5zM287 1606q0 31 18 51l148 166 q45 55 122 55q29 0 61 -16.5t50 -36.5l148 -160q25 -31 24 -68q0 -39 -29 -67q-35 -33 -84 -33q-53 0 -86 39l-67 74q-8 10 -17.5 10t-17.5 -8l-74 -80q-31 -35 -84 -35q-47 0 -77 29q-35 31 -35 80z" />
<glyph unicode="&#xcb;" horiz-adv-x="1134" d="M141 152v1130q0 63 46 107.5t114 44.5h633q59 0 96 -35t37 -86t-36 -85t-93 -34h-541v-332h430q57 0 95.5 -34.5t38.5 -84.5q0 -53 -38 -87.5t-92 -34.5h-434v-381h537q59 0 96 -34t37 -85t-36 -86t-93 -35h-637q-68 0 -114 44.5t-46 107.5zM297 1720v47q0 47 31.5 78 t83.5 31q51 0 82.5 -30.5t31.5 -78.5v-47q0 -45 -31.5 -76.5t-82.5 -31.5t-83 31.5t-32 76.5zM623 1720v47q0 47 31.5 78t82.5 31t83 -30.5t32 -78.5v-47q0 -45 -32 -76.5t-83 -31.5t-82.5 31.5t-31.5 76.5z" />
<glyph unicode="&#xcc;" horiz-adv-x="536" d="M16 1761q0 23 11 43q12 29 39.5 46.5t60.5 17.5q25 0 49 -10l279 -134q68 -33 67 -100q0 -25 -10 -43q-31 -57 -96 -57q-33 0 -66 16l-264 121q-31 14 -50.5 40.5t-19.5 59.5zM141 121v1192q0 51 36 86t91.5 35t92 -36t36.5 -89v-1184q0 -53 -36.5 -89t-92 -36t-91.5 35 t-36 86z" />
<glyph unicode="&#xcd;" horiz-adv-x="536" d="M16 1626q0 66 68 98l278 134q25 10 50 10q33 0 60.5 -17.5t39.5 -46.5q10 -23 10 -45q0 -66 -88 -106l-244 -113q-33 -14 -65 -14q-68 0 -96 55q-13 20 -13 45zM141 121v1192q0 51 36 86t91.5 35t92 -36t36.5 -89v-1184q0 -53 -36.5 -89t-92 -36t-91.5 35t-36 86z" />
<glyph unicode="&#xce;" horiz-adv-x="536" d="M-16 1604q0 33 16 53l147 166q45 55 123 55q29 0 60.5 -16.5t50.5 -36.5l147 -160q25 -31 25 -68q0 -39 -29 -67q-33 -33 -84 -33q-53 0 -86 39l-67 74q-8 10 -17.5 10t-17.5 -8l-72 -80q-33 -35 -86 -35q-47 0 -78 29q-32 31 -32 78zM141 121v1192q0 51 37 86t91.5 35 t91 -36t36.5 -89v-1184q0 -53 -36.5 -89t-91 -36t-91.5 35t-37 86z" />
<glyph unicode="&#xcf;" horiz-adv-x="536" d="M-8 1720v47q0 47 31.5 78t82.5 31t84 -30.5t33 -78.5v-47q0 -45 -32.5 -76.5t-84.5 -31.5q-51 0 -82.5 31.5t-31.5 76.5zM141 121v1192q0 51 36 86t91.5 35t92 -36t36.5 -89v-1184q0 -53 -36.5 -89t-92 -36t-91.5 35t-36 86zM317 1720v47q0 47 32 78t83 31t83 -30.5 t32 -78.5v-47q0 -45 -32 -76.5t-83 -31.5t-83 31.5t-32 76.5z" />
<glyph unicode="&#xd0;" horiz-adv-x="1343" d="M35 700q0 43 35.5 78t89.5 35h53v469q0 63 45 107.5t115 44.5h358q244 0 378 -126t134 -393v-409q0 -227 -136 -366.5t-376 -139.5h-358q-70 0 -116 44t-46 108v428h-55q-45 0 -83 34.5t-38 85.5zM467 236h264q121 0 187.5 73.5t66.5 196.5v409q0 150 -63.5 215.5 t-190.5 65.5h-264v-383h190q55 0 89 -32.5t34 -82.5q0 -51 -33.5 -84.5t-89.5 -33.5h-190v-344z" />
<glyph unicode="&#xd1;" horiz-adv-x="1327" d="M121 121v1104q0 88 62.5 148.5t154.5 60.5q61 0 116.5 -35t80.5 -88l405 -889q2 -8 8 -8t6 10v889q0 51 36 86t93 35q55 0 91 -35t36 -86v-1104q0 -86 -62.5 -147.5t-152.5 -61.5q-61 0 -117.5 35t-80.5 88l-406 889q-2 6 -8 6t-6 -10v-887q0 -49 -37 -85t-92 -36 q-53 0 -90 36t-37 85zM326 1667q0 47 41 84q102 90 194 92q35 0 63.5 -9t39 -16.5t30.5 -23.5q4 0 14.5 -8t14.5 -11t13 -9.5t14.5 -8.5t13.5 -4t14 -2q18 2 51 35q25 27 62 26q49 0 84 -38q29 -29 29 -69t-27 -73q-106 -98 -191 -102q-18 0 -32.5 1t-28.5 5t-22.5 6 t-21.5 11.5t-17.5 11.5t-19.5 13t-17 13q-47 35 -64 33q-16 0 -61 -39q-27 -20 -64 -20q-47 0 -80 32q-32 31 -32 70z" />
<glyph unicode="&#xd2;" horiz-adv-x="1314" d="M104 506v409q0 266 135.5 392.5t376.5 126.5h86q244 0 378 -126t134 -393v-409q0 -227 -136 -366.5t-376 -139.5h-86q-238 0 -375 139.5t-137 366.5zM365 506q0 -123 65.5 -196.5t185.5 -73.5h86q121 0 187.5 73.5t66.5 196.5v409q0 150 -63.5 215.5t-190.5 65.5h-86 q-127 0 -189 -65.5t-62 -215.5v-409zM406 1759q0 23 10 43q12 29 39.5 46.5t60.5 17.5q25 0 49 -11l279 -133q68 -31 67 -100q0 -25 -12 -43q-31 -55 -94 -55q-33 0 -68 14l-262 121q-31 14 -50 41.5t-19 58.5z" />
<glyph unicode="&#xd3;" horiz-adv-x="1314" d="M104 506v409q0 266 135.5 392.5t376.5 126.5h86q244 0 378 -126t134 -393v-409q0 -227 -136 -366.5t-376 -139.5h-86q-238 0 -375 139.5t-137 366.5zM365 506q0 -123 65.5 -196.5t185.5 -73.5h86q121 0 187.5 73.5t66.5 196.5v409q0 150 -63.5 215.5t-190.5 65.5h-86 q-127 0 -189 -65.5t-62 -215.5v-409zM406 1624q0 66 67 98l279 133q23 10 49 11q33 0 59.5 -17.5t40.5 -46.5q10 -23 10 -43q0 -68 -90 -108l-243 -113q-31 -14 -64 -14q-68 0 -98 55q-10 20 -10 45z" />
<glyph unicode="&#xd4;" horiz-adv-x="1314" d="M104 506v409q0 266 135.5 392.5t376.5 126.5h86q244 0 378 -126t134 -393v-409q0 -227 -136 -366.5t-376 -139.5h-86q-238 0 -375 139.5t-137 366.5zM365 506q0 -123 65.5 -196.5t185.5 -73.5h86q121 0 187.5 73.5t66.5 196.5v409q0 150 -63.5 215.5t-190.5 65.5h-86 q-127 0 -189 -65.5t-62 -215.5v-409zM371 1604q0 31 18 51l148 166q45 55 122 55q29 0 61 -16.5t50 -36.5l148 -158q25 -33 24 -68q0 -41 -29 -69q-35 -33 -84 -33q-53 0 -86 39l-67 76q-8 8 -17.5 8t-17.5 -8l-74 -80q-31 -35 -84 -35q-47 0 -77 29q-35 31 -35 80z" />
<glyph unicode="&#xd5;" horiz-adv-x="1314" d="M104 506v409q0 266 135.5 392.5t376.5 126.5h86q244 0 378 -126t134 -393v-409q0 -227 -136 -366.5t-376 -139.5h-86q-238 0 -375 139.5t-137 366.5zM319 1686q0 47 41 83q102 90 195 93q33 0 61.5 -9.5t39 -15.5t32.5 -22q2 -2 13.5 -10.5t14.5 -11.5t12 -9t15.5 -8 t13.5 -4.5t15 0.5q16 0 51 32q25 27 60 27q51 0 86 -37q27 -31 26.5 -71t-26.5 -72q-104 -98 -191 -103q-16 0 -31.5 1t-30 5.5t-22.5 7.5t-21.5 11t-17.5 10t-18 13.5t-16 13.5q-47 35 -66 32q-14 0 -61 -38q-27 -20 -62 -21q-49 0 -82 33q-31 31 -31 70zM365 506 q0 -123 65.5 -196.5t185.5 -73.5h86q121 0 187.5 73.5t66.5 196.5v409q0 150 -63.5 215.5t-190.5 65.5h-86q-127 0 -189 -65.5t-62 -215.5v-409z" />
<glyph unicode="&#xd6;" horiz-adv-x="1314" d="M104 506v409q0 266 135.5 392.5t376.5 126.5h86q244 0 378 -126t134 -393v-409q0 -227 -136 -366.5t-376 -139.5h-86q-238 0 -375 139.5t-137 366.5zM365 506q0 -123 65.5 -196.5t185.5 -73.5h86q121 0 187.5 73.5t66.5 196.5v409q0 150 -63.5 215.5t-190.5 65.5h-86 q-127 0 -189 -65.5t-62 -215.5v-409zM381 1718v47q0 47 31.5 78t83.5 31q51 0 82.5 -31t31.5 -78v-47q0 -45 -31.5 -76.5t-82.5 -31.5t-83 31.5t-32 76.5zM707 1718v47q0 47 31.5 78t82.5 31t83 -31t32 -78v-47q0 -45 -32 -76.5t-83 -31.5t-82.5 31.5t-31.5 76.5z" />
<glyph unicode="&#xd7;" horiz-adv-x="954" d="M76 788q0 43 26 76q35 45 97 45q55 0 88 -35l190 -188l191 193q31 33 82 32q72 0 106 -53q23 -31 23 -65q0 -49 -43 -95l-187 -184l201 -201q27 -29 27 -75q0 -45 -23 -74q-39 -45 -98 -45q-55 0 -97 41l-182 180l-190 -188q-37 -31 -90 -31q-59 0 -91 39q-29 35 -28 78 q0 49 37 86l190 190l-192 193q-37 32 -37 81z" />
<glyph unicode="&#xd8;" horiz-adv-x="1296" d="M94 506v409q0 266 135.5 392.5t376.5 126.5h86q86 0 158 -17l37 84q27 63 100 64q29 0 51 -13q53 -25 54 -88q0 -29 -11 -53l-37 -82q160 -129 160 -414v-409q0 -227 -136 -366.5t-376 -139.5h-86q-78 0 -147 16l-49 -112q-27 -61 -101 -62q-31 0 -53 17q-53 35 -53 86 q0 18 8 37l55 127q-172 137 -172 397zM354 506q0 -78 29 -139l367 825q-27 4 -58 4h-86q-127 0 -189.5 -65.5t-62.5 -215.5v-409zM559 240q23 -4 47 -4h86q121 0 187.5 73.5t66.5 196.5v409q0 86 -22 146z" />
<glyph unicode="&#xd9;" horiz-adv-x="1298" d="M139 442v873q0 45 38 82t89 37t89 -37t38 -82v-873q0 -98 48 -155.5t116 -57.5h223q70 0 109 56.5t39 156.5v869q0 51 38 87t89 36t89 -37t38 -82v-873q0 -201 -108.5 -326.5t-295.5 -125.5h-221q-176 0 -297 120.5t-121 331.5zM397 1741q0 23 11 43q12 29 39.5 46 t60.5 17q25 0 49 -10l279 -133q68 -33 67 -100q0 -25 -12 -43q-31 -55 -94 -56q-33 0 -66 15l-264 120q-31 14 -50.5 41t-19.5 60z" />
<glyph unicode="&#xda;" horiz-adv-x="1298" d="M139 442v873q0 45 38 82t89 37t89 -37t38 -82v-873q0 -98 48 -155.5t116 -57.5h223q70 0 109 56.5t39 156.5v869q0 51 38 87t89 36t89 -37t38 -82v-873q0 -201 -108.5 -326.5t-295.5 -125.5h-221q-176 0 -297 120.5t-121 331.5zM397 1606q0 66 68 98l278 133q25 10 50 10 q33 0 59.5 -17.5t40.5 -45.5q10 -23 10 -45q0 -66 -90 -107l-244 -112q-31 -14 -63 -15q-68 0 -96 56q-13 20 -13 45z" />
<glyph unicode="&#xdb;" horiz-adv-x="1298" d="M139 442v873q0 45 38 82t89 37t89 -37t38 -82v-873q0 -98 48 -155.5t116 -57.5h223q70 0 109 56.5t39 156.5v869q0 51 38 87t89 36t89 -37t38 -82v-873q0 -201 -108.5 -326.5t-295.5 -125.5h-221q-176 0 -297 120.5t-121 331.5zM362 1585q0 31 19 51l147 166 q45 55 123 56q29 0 60.5 -16.5t50.5 -37.5l147 -159q25 -31 25 -68q0 -39 -29 -68q-35 -33 -84 -32q-53 0 -86 39l-67 75q-8 8 -17.5 8t-17.5 -8l-74 -80q-31 -35 -84 -34q-47 0 -78 28q-35 31 -35 80z" />
<glyph unicode="&#xdc;" horiz-adv-x="1298" d="M139 442v873q0 45 38 82t89 37t89 -37t38 -82v-873q0 -98 48 -155.5t116 -57.5h223q70 0 109 56.5t39 156.5v869q0 51 38 87t89 36t89 -37t38 -82v-873q0 -201 -108.5 -326.5t-295.5 -125.5h-221q-176 0 -297 120.5t-121 331.5zM373 1700v47q0 47 31.5 77.5t82.5 30.5 t83 -30.5t32 -77.5v-47q0 -45 -31.5 -77t-83.5 -32q-51 0 -82.5 32t-31.5 77zM698 1700v47q0 47 32 77.5t83 30.5t83 -30.5t32 -77.5v-47q0 -45 -32 -77t-83 -32t-83 32t-32 77z" />
<glyph unicode="&#xdd;" horiz-adv-x="1089" d="M35 1311q0 49 33.5 85t93.5 38q74 2 108 -60l277 -459l270 457q12 23 43 42.5t70 19.5q59 -2 93 -39t34 -86q0 -29 -15 -52l-366 -616v-520q0 -51 -36 -86t-91 -35t-92 35t-37 86v520l-369 608q-16 27 -16 62zM293 1606q0 66 67 98l279 133q25 10 49 10q33 0 59.5 -17.5 t40.5 -45.5q10 -23 11 -45q0 -66 -90 -107l-244 -112q-31 -14 -64 -15q-68 0 -96 56q-12 20 -12 45z" />
<glyph unicode="&#xde;" horiz-adv-x="1173" d="M80 121v1192q0 51 36 86t93 35q55 0 91 -35t36 -86v-101h317q207 0 325 -99t118 -284v-172q0 -186 -113 -302.5t-330 -116.5h-317v-117q0 -49 -36 -85t-91 -36q-57 0 -93 35t-36 86zM336 477h317q94 0 140.5 48t46.5 132v172q0 76 -46 112t-141 36h-317v-500z" />
<glyph unicode="&#xdf;" horiz-adv-x="1179" d="M80 119v809q0 260 132 383t372 123h59q170 0 289 -117t119 -283q0 -154 -113 -264q74 -55 118 -144t44 -186q0 -193 -123 -316.5t-303 -123.5h-137q-59 0 -95 35t-36 82q0 45 37.5 82t88.5 37h142q76 0 126 53t50 151q0 80 -52.5 139.5t-123.5 59.5h-33q-53 0 -88 35 t-35 82q0 45 35 80.5t88 35.5q66 0 113 47.5t47 116t-46 115.5t-112 47h-59q-125 0 -186.5 -62.5t-61.5 -207.5v-807q0 -51 -39 -86t-90 -35q-53 0 -90 35t-37 84z" />
<glyph unicode="&#xe0;" horiz-adv-x="952" d="M57 322q0 133 96.5 229t237.5 96h234v62q0 49 -26 78.5t-62 29.5h-306q-53 0 -86.5 32t-33.5 79t32.5 80.5t85.5 33.5h324q137 0 227 -94t90 -233v-576q0 -59 -42 -99t-105 -40h-332q-141 0 -237.5 93.5t-96.5 228.5zM223 1366q0 23 13 43q12 29 38.5 47.5t59.5 18.5 q27 0 51 -13l279 -133q66 -31 65 -100q0 -25 -10 -43q-31 -55 -96 -56q-33 0 -66 15l-262 121q-31 14 -51.5 41.5t-20.5 58.5zM301 322q0 -39 26.5 -66t63.5 -27h234v191h-234q-37 0 -63.5 -28.5t-26.5 -69.5z" />
<glyph unicode="&#xe1;" horiz-adv-x="952" d="M57 322q0 133 96.5 229t237.5 96h234v62q0 49 -26 78.5t-62 29.5h-306q-53 0 -86.5 32t-33.5 79t32.5 80.5t85.5 33.5h324q137 0 227 -94t90 -233v-576q0 -59 -42 -99t-105 -40h-332q-141 0 -237.5 93.5t-96.5 228.5zM223 1231q0 66 70 98l278 133q23 12 50 13 q31 0 58.5 -18.5t41.5 -47.5q10 -23 10 -43q0 -68 -90 -109l-244 -112q-31 -14 -63 -15q-68 0 -98 56q-13 20 -13 45zM301 322q0 -39 26.5 -66t63.5 -27h234v191h-234q-37 0 -63.5 -28.5t-26.5 -69.5z" />
<glyph unicode="&#xe2;" horiz-adv-x="952" d="M57 322q0 133 96.5 229t237.5 96h234v62q0 49 -26 78.5t-62 29.5h-306q-53 0 -86.5 32t-33.5 81q0 45 32.5 78.5t85.5 33.5h324q137 0 227 -94t90 -233v-576q0 -59 -42 -99t-105 -40h-332q-141 0 -237.5 93.5t-96.5 228.5zM190 1210q0 31 19 52l147 168q45 53 123 53 q29 0 60.5 -16.5t48.5 -34.5l149 -160q25 -31 25 -68q0 -39 -29 -69q-35 -33 -84 -33q-53 0 -86 39l-67 76q-8 8 -17.5 8t-17.5 -8l-74 -80q-31 -35 -86 -35q-47 0 -76 28q-35 31 -35 80zM301 322q0 -39 26.5 -66t63.5 -27h234v191h-234q-37 0 -63.5 -28.5t-26.5 -69.5z" />
<glyph unicode="&#xe3;" horiz-adv-x="952" d="M57 322q0 133 96.5 229t237.5 96h234v62q0 49 -26 78.5t-62 29.5h-306q-53 0 -86.5 32t-33.5 79t32.5 80.5t85.5 33.5h324q137 0 227 -94t90 -233v-576q0 -59 -42 -99t-105 -40h-332q-141 0 -237.5 93.5t-96.5 228.5zM139 1292q0 47 41 84q100 92 195 92q33 0 61.5 -9 t38.5 -15t33 -23q2 -2 13 -10t14.5 -11t12.5 -8.5t15 -7.5t13.5 -4t15.5 -2q16 0 51 33q23 27 59 27q51 0 86 -37q27 -31 27 -71t-27 -70q-104 -100 -190 -103q-16 -2 -31.5 -1t-30 5t-22.5 7t-21.5 11.5t-17.5 10.5t-18.5 13t-16.5 14q-47 35 -65 32q-16 0 -62 -37 q-27 -23 -61 -22q-49 0 -82 33q-31 30 -31 69zM301 322q0 -39 26.5 -66t63.5 -27h234v191h-234q-37 0 -63.5 -28.5t-26.5 -69.5z" />
<glyph unicode="&#xe4;" horiz-adv-x="952" d="M57 322q0 133 96.5 229t237.5 96h234v62q0 49 -26 78.5t-62 29.5h-306q-53 0 -86.5 32t-33.5 79t32.5 80.5t85.5 33.5h324q137 0 227 -94t90 -233v-576q0 -59 -42 -99t-105 -40h-332q-141 0 -237.5 93.5t-96.5 228.5zM201 1325v47q0 47 31.5 78t80.5 31q51 0 84 -31 t33 -78v-47q0 -45 -32.5 -76.5t-84.5 -31.5q-49 0 -80.5 31.5t-31.5 76.5zM301 322q0 -39 26.5 -66t63.5 -27h234v191h-234q-37 0 -63.5 -28.5t-26.5 -69.5zM526 1325v47q0 47 32 78t83 31q49 0 82 -31t33 -78v-47q0 -45 -33 -76.5t-82 -31.5q-51 0 -83 31.5t-32 76.5z" />
<glyph unicode="&#xe5;" horiz-adv-x="952" d="M57 322q0 133 96.5 229t237.5 96h234v62q0 49 -26 78.5t-62 29.5h-306q-53 0 -86.5 32t-33.5 79t32.5 80.5t85.5 33.5h199q-82 16 -136 81t-54 147q0 92 70.5 160.5t168.5 68.5t169 -68.5t71 -160.5q0 -82 -54.5 -146.5t-136.5 -81.5h27q137 0 227 -94t90 -233v-576 q0 -59 -42 -99t-105 -40h-332q-141 0 -237.5 93.5t-96.5 228.5zM301 322q0 -39 26.5 -66t63.5 -27h234v191h-234q-37 0 -63.5 -28.5t-26.5 -69.5zM432 1270q0 -23 13.5 -38t33 -15t32.5 15t13 38t-13 38t-31.5 15t-33 -15t-14.5 -38z" />
<glyph unicode="&#xe6;" horiz-adv-x="1513" d="M57 322q0 133 96.5 229t237.5 96h234v62q0 49 -26 78.5t-62 29.5h-306q-53 0 -86.5 32t-33.5 79t32.5 80.5t85.5 33.5h324q135 0 219 -98q102 98 264 98q199 0 309.5 -108.5t110.5 -304.5v-84q0 -59 -43 -99t-106 -40h-430l2 -31q10 -82 44.5 -116t108.5 -34h273 q55 0 87.5 -32.5t32.5 -79.5t-32.5 -80t-85.5 -33h-275q-113 0 -176 43l-41 -8q-37 -35 -92 -35h-334q-139 0 -235.5 93.5t-96.5 228.5zM301 322q0 -39 26.5 -66t61.5 -27h236v191h-236q-35 0 -61.5 -28.5t-26.5 -69.5zM872 608h336v41q-4 86 -46 127t-126 41 q-72 0 -113.5 -42t-50.5 -120v-47z" />
<glyph unicode="&#xe7;" horiz-adv-x="872" d="M72 442v168q0 209 106.5 320.5t315.5 111.5h200q55 0 88 -33.5t33 -80.5t-33.5 -79t-87.5 -32h-200q-94 0 -136.5 -49t-42.5 -158v-168q0 -113 44 -165t135 -52h200q53 0 87 -32.5t34 -79.5t-33.5 -80t-87.5 -33h-200q-18 0 -37 2v-37q84 0 126 -44t42 -122 q0 -92 -64.5 -141t-165.5 -49h-71q-35 0 -54.5 19.5t-19.5 49.5q0 33 19.5 52.5t49.5 19.5h72q39 0 39 45q-2 41 -37 41q-88 10 -88 98v97q-233 83 -233 411z" />
<glyph unicode="&#xe8;" horiz-adv-x="958" d="M72 487v142q0 188 116.5 300.5t292.5 112.5q199 0 309.5 -108.5t110.5 -304.5v-84q0 -59 -43 -99t-106 -40h-430q6 -98 40.5 -139.5t114.5 -41.5h273q53 0 86.5 -32.5t33.5 -79.5t-32.5 -80t-85.5 -33h-275q-229 0 -317 118.5t-88 368.5zM227 1360q0 23 11 43 q12 29 39.5 46t60.5 17q25 0 49 -10l279 -133q68 -33 67 -100q0 -25 -12 -43q-31 -57 -94 -58q-33 0 -68 17l-262 121q-31 14 -50.5 40.5t-19.5 59.5zM317 608h336v45q-10 164 -172 164q-74 0 -115.5 -43t-48.5 -121v-45z" />
<glyph unicode="&#xe9;" horiz-adv-x="958" d="M72 487v142q0 188 116.5 300.5t292.5 112.5q199 0 309.5 -108.5t110.5 -304.5v-86q0 -57 -43 -97t-106 -40h-430q6 -98 40.5 -139.5t114.5 -41.5h273q53 0 86.5 -32.5t33.5 -79.5t-32.5 -80t-85.5 -33h-275q-229 0 -317 118.5t-88 368.5zM227 1225q0 66 68 98l278 133 q23 10 50 10q33 0 59.5 -17t40.5 -46q10 -23 10 -45q0 -66 -90 -107l-244 -112q-31 -14 -63 -15q-68 0 -98 56q-11 20 -11 45zM317 608h336v45q-10 164 -172 164q-74 0 -115.5 -43t-48.5 -121v-45z" />
<glyph unicode="&#xea;" horiz-adv-x="958" d="M72 487v142q0 188 116.5 300.5t292.5 112.5q199 0 309.5 -108.5t110.5 -304.5v-84q0 -59 -43 -99t-106 -40h-430q6 -98 40.5 -139.5t114.5 -41.5h273q53 0 86.5 -32.5t33.5 -79.5t-32.5 -80t-85.5 -33h-275q-229 0 -317 118.5t-88 368.5zM193 1204q0 31 18 51l147 166 q45 55 123 56q29 0 60.5 -16.5t50.5 -37.5l147 -159q25 -31 25 -68q0 -39 -29 -68q-35 -33 -84 -32q-53 0 -86 39l-67 73q-8 10 -17.5 10.5t-17.5 -8.5l-74 -80q-31 -35 -84 -34q-47 0 -78 28q-34 31 -34 80zM317 608h336v45q-10 164 -172 164q-74 0 -115.5 -43t-48.5 -121 v-45z" />
<glyph unicode="&#xeb;" horiz-adv-x="958" d="M72 487v142q0 188 116.5 300.5t292.5 112.5q199 0 309.5 -108.5t110.5 -304.5v-84q0 -59 -43 -99t-106 -40h-430q6 -98 40.5 -139.5t114.5 -41.5h273q53 0 86.5 -32.5t33.5 -79.5t-32.5 -80t-85.5 -33h-275q-229 0 -317 118.5t-88 368.5zM203 1319v47q0 47 31.5 78 t82.5 31t83 -31t32 -78v-47q0 -45 -31.5 -77t-83.5 -32q-51 0 -82.5 32t-31.5 77zM317 608h336v45q-10 164 -172 164q-74 0 -115.5 -43t-48.5 -121v-45zM528 1319v47q0 47 32 78t83 31t83 -31t32 -78v-47q0 -45 -32 -77t-83 -32t-83 32t-32 77z" />
<glyph unicode="&#xec;" horiz-adv-x="446" d="M-27 1350q0 23 11 43q12 29 38.5 46t59.5 17q27 0 49 -10l279 -133q68 -33 67 -101q0 -25 -10 -43q-31 -55 -96 -55q-33 0 -66 14l-264 121q-29 14 -48.5 41t-19.5 60zM109 115v813q0 49 32.5 82.5t87.5 33.5q53 0 88 -33.5t35 -82.5v-813q0 -49 -34.5 -82t-88.5 -33 q-55 0 -87.5 33t-32.5 82z" />
<glyph unicode="&#xed;" horiz-adv-x="446" d="M-29 1214q0 66 70 99l276 133q25 10 50 10q33 0 60.5 -17.5t39.5 -45.5q12 -23 12 -45q0 -66 -90 -107l-244 -113q-33 -14 -65 -14q-66 0 -96 55q-13 20 -13 45zM109 115v813q0 49 32.5 82.5t87.5 33.5q53 0 88 -33.5t35 -82.5v-813q0 -49 -34.5 -82t-88.5 -33 q-55 0 -87.5 33t-32.5 82z" />
<glyph unicode="&#xee;" horiz-adv-x="446" d="M-59 1192q0 33 16 53l145 166q47 55 123 55q31 0 62.5 -16t48.5 -37l147 -160q27 -31 27 -67q0 -39 -31 -68q-33 -33 -82 -33q-53 0 -88 39l-67 76q-8 8 -17.5 8t-17.5 -8l-72 -80q-31 -35 -86 -35q-47 0 -78 29q-30 31 -30 78zM109 115v813q0 49 32.5 82.5t87.5 33.5 q53 0 88 -33.5t35 -82.5v-813q0 -49 -34.5 -82t-88.5 -33q-55 0 -87.5 33t-32.5 82z" />
<glyph unicode="&#xef;" horiz-adv-x="446" d="M-53 1309v47q0 47 31.5 77.5t82.5 30.5t84 -30.5t33 -77.5v-47q0 -45 -32.5 -77t-84.5 -32q-49 0 -81.5 32t-32.5 77zM109 115v813q0 49 32.5 82.5t87.5 33.5q53 0 88 -33.5t35 -82.5v-813q0 -49 -34.5 -82t-88.5 -33q-55 0 -87.5 33t-32.5 82zM274 1309v47q0 47 31 77.5 t84 30.5q49 0 82 -30.5t33 -77.5v-47q0 -45 -33 -77t-82 -32q-53 0 -84 32t-31 77z" />
<glyph unicode="&#xf0;" horiz-adv-x="1101" d="M78 422v74q0 193 117.5 290t341.5 101h233v69q0 59 -39 64l-51 -45q-25 -18 -55 -19q-49 0 -82 48q-12 20 -13 47q0 47 35 73l58 52q-45 23 -109 22h-270q-51 0 -88 37t-37 82t35.5 81t93.5 36h262q211 0 338 -93l61 50q27 18 58 18q49 0 77 -37q18 -31 19 -57 q0 -41 -41 -74l-55 -45q59 -109 59 -268v-445q0 -250 -121 -368.5t-356 -118.5q-227 0 -349 118t-122 308zM334 422q0 -190 215 -191q121 0 171 54.5t50 201.5v164h-229q-106 0 -156.5 -38t-50.5 -117v-74z" />
<glyph unicode="&#xf1;" horiz-adv-x="1001" d="M96 117v780q0 57 42 101t108 44h319q147 0 252 -100t105 -266v-559q0 -47 -37 -82t-90 -35q-51 0 -85 36t-34 81v559q0 63 -32 102t-79 39h-223v-698q0 -51 -36 -85t-89 -34t-87 35t-34 82zM162 1276q0 47 43 84q100 90 192 92q35 0 63.5 -9t39 -16.5t32.5 -23.5 q2 0 12.5 -8.5t14.5 -11.5t13.5 -9t15.5 -8t13 -4t15 -2q16 2 52 35q23 27 59 26q51 0 86 -39q27 -29 27 -68.5t-27 -72.5q-104 -98 -190 -102q-16 0 -32 1t-30 5t-22.5 6t-21.5 11t-17 11.5t-18.5 13.5t-16.5 13q-47 35 -66 33q-16 0 -61 -39q-27 -20 -62 -20q-49 0 -81 32 q-33 31 -33 70z" />
<glyph unicode="&#xf2;" horiz-adv-x="995" d="M72 369v286q0 168 104.5 277.5t267.5 109.5h109q162 0 266.5 -109.5t104.5 -277.5v-286q0 -168 -104.5 -269.5t-266.5 -101.5h-109q-162 0 -267 101.5t-105 269.5zM244 1370q0 23 10 43q14 29 41 46.5t59 17.5q27 0 52 -11l276 -133q68 -33 68 -100q0 -25 -11 -43 q-31 -57 -96 -57q-33 0 -65 16l-263 121q-31 14 -51 40.5t-20 59.5zM317 350q0 -63 36 -100t91 -37h109q55 0 92 37t37 100v330q0 70 -38 109.5t-91 39.5h-109q-53 0 -90 -39.5t-37 -109.5v-330z" />
<glyph unicode="&#xf3;" horiz-adv-x="995" d="M72 369v286q0 168 104.5 277.5t267.5 109.5h109q162 0 266.5 -109.5t104.5 -277.5v-286q0 -168 -104.5 -269.5t-266.5 -101.5h-109q-162 0 -267 101.5t-105 269.5zM244 1233q0 68 69 100l279 133q23 10 47 11q33 0 60.5 -17.5t41.5 -46.5q10 -23 11 -45q0 -66 -90 -106 l-244 -113q-31 -14 -64 -14q-68 0 -98 55q-12 20 -12 43zM317 350q0 -63 36 -100t91 -37h109q55 0 92 37t37 100v330q0 70 -38 109.5t-91 39.5h-109q-53 0 -90 -39.5t-37 -109.5v-330z" />
<glyph unicode="&#xf4;" horiz-adv-x="995" d="M72 369v286q0 168 104.5 277.5t267.5 109.5h109q162 0 266.5 -109.5t104.5 -277.5v-286q0 -168 -104.5 -269.5t-266.5 -101.5h-109q-162 0 -267 101.5t-105 269.5zM211 1214q0 31 16 52l150 166q45 55 121 55q31 0 62.5 -16.5t47.5 -36.5l150 -160q25 -31 24 -68 q0 -39 -28 -67q-35 -33 -84 -33q-53 0 -88 39l-66 74q-8 10 -17.5 10t-17.5 -8l-73 -80q-31 -35 -86 -35q-47 0 -78 29q-33 30 -33 79zM317 350q0 -63 36 -100t91 -37h109q55 0 92 37t37 100v330q0 70 -38 109.5t-91 39.5h-109q-53 0 -90 -39.5t-37 -109.5v-330z" />
<glyph unicode="&#xf5;" horiz-adv-x="995" d="M72 369v286q0 168 104.5 277.5t267.5 109.5h109q162 0 266.5 -109.5t104.5 -277.5v-286q0 -168 -104.5 -269.5t-266.5 -101.5h-109q-162 0 -267 101.5t-105 269.5zM158 1296q0 47 43 84q100 90 192 93q35 0 63.5 -9.5t39 -16.5t32.5 -24q2 0 12.5 -8t14.5 -11t13.5 -9 t14.5 -8.5t13 -4.5t16 -2q16 2 50 35q25 25 61 25q51 0 86 -37q27 -29 27 -69t-27 -72q-104 -98 -191 -103q-16 0 -31.5 1t-29.5 5t-22.5 6.5t-21.5 11.5t-17 11t-18.5 13.5t-16.5 13.5q-47 35 -66 32q-16 0 -61 -39q-27 -20 -62 -20q-49 0 -82 33q-32 30 -32 69zM317 350 q0 -63 36 -100t91 -37h109q55 0 92 37t37 100v330q0 70 -38 109.5t-91 39.5h-109q-53 0 -90 -39.5t-37 -109.5v-330z" />
<glyph unicode="&#xf6;" horiz-adv-x="995" d="M72 369v286q0 168 104.5 277.5t267.5 109.5h109q162 0 266.5 -109.5t104.5 -277.5v-286q0 -168 -104.5 -269.5t-266.5 -101.5h-109q-162 0 -267 101.5t-105 269.5zM219 1329v47q0 47 33 78t82 31q51 0 84 -31t33 -78v-47q0 -45 -33 -76.5t-84 -31.5q-49 0 -82 31.5 t-33 76.5zM317 350q0 -63 36 -100t91 -37h109q55 0 92 37t37 100v330q0 70 -38 109.5t-91 39.5h-109q-53 0 -90 -39.5t-37 -109.5v-330zM547 1329v47q0 47 31.5 78t83.5 31q49 0 81.5 -31t32.5 -78v-47q0 -45 -32.5 -76.5t-81.5 -31.5q-53 0 -84 31.5t-31 76.5z" />
<glyph unicode="&#xf7;" horiz-adv-x="921" d="M74 702q0 45 34.5 82t90.5 37h524q55 0 91 -35.5t36 -85t-36 -82t-91 -32.5h-530q-53 2 -86 35.5t-33 80.5zM332 293v72q0 47 37 83.5t92 36.5q53 0 92 -36.5t39 -83.5v-70q0 -53 -39 -88t-92 -35q-55 0 -92 35t-37 86zM332 1040v72q0 47 37 85t92 38q53 0 92 -38t39 -85 v-68q0 -53 -39 -89.5t-92 -36.5q-55 0 -92 35.5t-37 86.5z" />
<glyph unicode="&#xf8;" horiz-adv-x="989" d="M72 369v286q0 168 104.5 277.5t267.5 109.5h109q27 0 53 -4l25 56q27 63 100 63q29 0 51 -10q53 -25 54 -88q0 -29 -11 -53l-24 -56q123 -111 123 -295v-286q0 -168 -104.5 -269.5t-266.5 -101.5h-109q-29 0 -65 4l-29 -61q-27 -61 -98 -62q-31 0 -53 17q-53 35 -54 86 q0 18 9 36l32 74q-114 103 -114 277zM317 389l195 440h-68q-53 0 -90 -39.5t-37 -109.5v-291zM473 213h80q55 0 92 37t37 100v330v2z" />
<glyph unicode="&#xf9;" horiz-adv-x="991" d="M84 362v564q0 43 35 79.5t88 36.5t88 -36.5t35 -79.5v-564q0 -61 32.5 -99t77.5 -38h224v697q0 47 33.5 83.5t86.5 36.5t89 -36.5t36 -79.5v-783q0 -57 -42 -100t-109 -43h-318q-147 0 -251.5 99t-104.5 263zM244 1370q0 23 10 43q12 29 40 46.5t60 17.5q25 0 49 -11 l279 -133q68 -33 68 -100q0 -25 -13 -43q-29 -57 -94 -57q-33 0 -65 16l-265 121q-31 14 -50 40.5t-19 59.5z" />
<glyph unicode="&#xfa;" horiz-adv-x="991" d="M84 362v564q0 43 35 79.5t88 36.5t88 -36.5t35 -79.5v-564q0 -61 32.5 -99t77.5 -38h224v697q0 47 33.5 83.5t86.5 36.5t89 -36.5t36 -79.5v-783q0 -57 -42 -100t-109 -43h-318q-147 0 -251.5 99t-104.5 263zM244 1233q0 68 67 100l279 133q25 10 49 11q33 0 59.5 -17.5 t40.5 -46.5q10 -23 11 -45q0 -66 -91 -106l-243 -113q-31 -14 -64 -14q-68 0 -96 55q-12 20 -12 43z" />
<glyph unicode="&#xfb;" horiz-adv-x="991" d="M84 362v564q0 43 35 79.5t88 36.5t88 -36.5t35 -79.5v-564q0 -61 32.5 -99t77.5 -38h224v697q0 47 33.5 83.5t86.5 36.5t89 -36.5t36 -79.5v-783q0 -57 -42 -100t-109 -43h-318q-147 0 -251.5 99t-104.5 263zM211 1214q0 31 16 52l148 166q45 55 123 55q29 0 60.5 -16.5 t49.5 -36.5l148 -160q25 -31 24 -68q0 -39 -28 -67q-33 -33 -84 -33q-53 0 -86 39l-68 74q-8 10 -17.5 10t-17.5 -8l-71 -80q-33 -35 -86 -35q-47 0 -78 29q-33 30 -33 79z" />
<glyph unicode="&#xfc;" horiz-adv-x="991" d="M84 362v564q0 43 35 79.5t88 36.5t88 -36.5t35 -79.5v-564q0 -61 32.5 -99t77.5 -38h224v697q0 47 33.5 83.5t86.5 36.5t89 -36.5t36 -79.5v-783q0 -57 -42 -100t-109 -43h-318q-147 0 -251.5 99t-104.5 263zM219 1329v47q0 47 32 78t83 31t84 -31t33 -78v-47 q0 -45 -33 -76.5t-84 -31.5t-83 31.5t-32 76.5zM545 1329v47q0 47 31.5 78t82.5 31t83 -31t32 -78v-47q0 -45 -31.5 -76.5t-83.5 -31.5q-51 0 -82.5 31.5t-31.5 76.5z" />
<glyph unicode="&#xfd;" horiz-adv-x="911" d="M27 928q0 43 32.5 78.5t87.5 35.5q45 0 76 -24.5t43 -59.5l178 -571q2 -8 7.5 -8t9.5 8l180 563q12 43 46 67.5t75 24.5q59 0 91 -32.5t32 -77.5q0 -16 -4 -33l-392 -1233q-10 -33 -40.5 -56.5t-75.5 -23.5q-55 0 -87 35t-32 80q0 14 2 29l94 293l-16 8q-25 18 -37 34.5 t-23 47.5l-243 790q-4 13 -4 25zM203 1223q0 66 69 98l279 133q23 10 49 10q31 0 58.5 -17t41.5 -46q10 -23 11 -43q0 -68 -90 -109l-244 -112q-31 -14 -64 -15q-68 0 -98 56q-12 20 -12 45z" />
<glyph unicode="&#xfe;" horiz-adv-x="989" d="M84 -260v1577q0 49 35 83t88 34q51 0 87 -34t36 -83v-275h215q78 0 141.5 -28.5t103 -71.5t66.5 -98.5t38 -107.5t11 -101v-273q0 -164 -104.5 -263t-251.5 -99h-219v-260q0 -49 -36 -83t-87 -34q-49 0 -86 34t-37 83zM330 223h219q47 0 78.5 38t31.5 101v269 q0 80 -33.5 129t-80.5 49h-215v-586z" />
<glyph unicode="&#xff;" horiz-adv-x="911" d="M27 928q0 43 32.5 78.5t87.5 35.5q45 0 76 -24.5t43 -61.5l178 -569q2 -8 7.5 -8t9.5 8l180 563q12 43 46 67.5t75 24.5q59 0 91 -32.5t32 -77.5q0 -16 -4 -33l-392 -1233q-10 -33 -40.5 -56.5t-73.5 -23.5q-57 0 -89 35t-32 80q0 14 2 29l94 293l-16 8q-25 18 -37 34.5 t-23 47.5l-243 790q-4 13 -4 25zM178 1317v47q0 47 33 78t82 31q51 0 84 -31t33 -78v-47q0 -45 -33 -77t-84 -32q-49 0 -82 32t-33 77zM506 1317v47q0 47 31.5 78t83.5 31q49 0 81.5 -31t32.5 -78v-47q0 -45 -32.5 -77t-81.5 -32q-51 0 -83 32t-32 77z" />
<glyph unicode="&#x152;" horiz-adv-x="1949" d="M104 506v409q0 266 135.5 392.5t376.5 126.5h86q190 0 297 -84l54 65q20 18 65 19h631q61 0 97 -35t36 -86t-36 -85t-93 -34h-539v-332h431q55 0 93 -34.5t38 -84.5q0 -53 -37 -87.5t-90 -34.5h-435v-381h535q61 0 97 -34t36 -85t-35 -86t-94 -35h-635q-51 0 -74 23 l-49 67q-113 -90 -293 -90h-86q-238 0 -375 139.5t-137 366.5zM365 506q0 -123 65.5 -196.5t185.5 -73.5h86q121 0 187.5 73.5t66.5 196.5v409q0 150 -63.5 215.5t-190.5 65.5h-86q-127 0 -189 -65.5t-62 -215.5v-409z" />
<glyph unicode="&#x153;" horiz-adv-x="1665" d="M72 369v286q0 168 104.5 277.5t267.5 109.5h109q160 0 258 -112q104 113 281 112q199 0 309 -108.5t110 -304.5v-84q0 -59 -43 -99t-106 -40h-430q6 -100 41 -140.5t114 -40.5h273q53 0 87 -32.5t34 -79.5t-33 -80t-86 -33h-275q-195 0 -284 98q-94 -100 -250 -100h-109 q-162 0 -267 101.5t-105 269.5zM317 350q0 -63 36 -100t91 -37h109q55 0 92 37t37 100v330q0 70 -38 109.5t-91 39.5h-109q-53 0 -90 -39.5t-37 -109.5v-330zM928 608h334v47q-8 162 -170 162q-72 0 -115 -42t-49 -120v-47z" />
<glyph unicode="&#x178;" horiz-adv-x="1089" d="M35 1311q0 49 33.5 85t93.5 38q74 2 108 -60l277 -459l270 457q12 23 43 42.5t70 19.5q59 -2 93 -39t34 -86q0 -29 -15 -52l-364 -616v-520q0 -51 -37 -86t-92 -35t-92 35t-37 86v520l-369 608q-16 27 -16 62zM268 1700v47q0 47 32 77.5t83 30.5t84 -30.5t33 -77.5v-47 q0 -45 -33 -77t-84 -32t-83 32t-32 77zM594 1700v47q0 47 31.5 77.5t83.5 30.5q51 0 82.5 -30.5t31.5 -77.5v-47q0 -45 -31.5 -77t-82.5 -32t-83 32t-32 77z" />
<glyph unicode="&#x2c6;" horiz-adv-x="690" d="M59 1194q0 31 17 51l149 166q45 55 121 55q31 0 62.5 -16t48.5 -37l149 -160q25 -31 25 -67q0 -39 -29 -68q-35 -33 -84 -33q-53 0 -88 39l-65 76q-8 8 -17.5 8t-17.5 -8l-74 -80q-31 -35 -86 -35q-47 0 -78 29q-33 31 -33 80z" />
<glyph unicode="&#x2dc;" horiz-adv-x="800" d="M61 1276q0 47 41 84q102 90 195 92q35 0 63.5 -9t39 -16.5t30.5 -23.5q4 0 14.5 -8.5t14.5 -11.5t13 -9t14.5 -8t13.5 -4t14 -2q18 2 51 35q25 27 62 26q49 0 84 -39q29 -29 28.5 -68.5t-26.5 -72.5q-106 -98 -191 -102q-18 0 -32.5 1t-29 5t-22.5 6t-21.5 11t-17.5 11.5 t-19 13.5t-18 13q-47 35 -63 33q-16 0 -61 -39q-27 -20 -64 -20q-47 0 -80 32q-33 31 -33 70z" />
<glyph unicode="&#x2000;" horiz-adv-x="937" />
<glyph unicode="&#x2001;" horiz-adv-x="1878" />
<glyph unicode="&#x2002;" horiz-adv-x="937" />
<glyph unicode="&#x2003;" horiz-adv-x="1878" />
<glyph unicode="&#x2004;" horiz-adv-x="624" />
<glyph unicode="&#x2005;" horiz-adv-x="468" />
<glyph unicode="&#x2006;" horiz-adv-x="311" />
<glyph unicode="&#x2007;" horiz-adv-x="311" />
<glyph unicode="&#x2008;" horiz-adv-x="233" />
<glyph unicode="&#x2009;" horiz-adv-x="374" />
<glyph unicode="&#x200a;" horiz-adv-x="102" />
<glyph unicode="&#x2010;" horiz-adv-x="888" d="M72 537q0 45 35.5 79.5t89.5 34.5h497q55 0 90 -33.5t35 -82.5q0 -51 -34.5 -85t-90.5 -34h-495q-127 0 -127 121z" />
<glyph unicode="&#x2011;" horiz-adv-x="888" d="M72 537q0 45 35.5 79.5t89.5 34.5h497q55 0 90 -33.5t35 -82.5q0 -51 -34.5 -85t-90.5 -34h-495q-127 0 -127 121z" />
<glyph unicode="&#x2012;" horiz-adv-x="888" d="M72 537q0 45 35.5 79.5t89.5 34.5h497q55 0 90 -33.5t35 -82.5q0 -51 -34.5 -85t-90.5 -34h-495q-127 0 -127 121z" />
<glyph unicode="&#x2013;" horiz-adv-x="1048" d="M76 551q0 47 38 83t91 36h643q55 0 90 -35t35 -84q0 -51 -35 -84t-90 -33h-651q-49 6 -85 37t-36 80z" />
<glyph unicode="&#x2014;" horiz-adv-x="1300" d="M84 553q0 45 35 81t90 36h885q53 0 88 -35t35 -84t-35 -83t-88 -34h-891q-51 4 -85 38t-34 81z" />
<glyph unicode="&#x2018;" horiz-adv-x="436" d="M57 1135v122q0 88 68 145.5t133 61.5q51 0 87 -32.5t36 -79.5q2 -63 -49 -86q-20 -8 -21 -49v-82q0 -49 -34.5 -86t-90.5 -37q-53 0 -91 38t-38 85z" />
<glyph unicode="&#x2019;" horiz-adv-x="436" d="M55 1126v4q0 59 51 80q18 10 19 52v81q0 49 35 85t92 36q51 0 89 -36.5t38 -84.5v-124q0 -86 -66.5 -144.5t-132.5 -60.5q-51 -2 -87 31.5t-38 80.5z" />
<glyph unicode="&#x201a;" horiz-adv-x="436" d="M55 -33q0 57 51 80q18 8 19 49v82q0 49 35 86t92 37q51 0 89 -38t38 -85v-123q0 -86 -66.5 -144t-132.5 -63q-53 0 -88 34t-37 81v4z" />
<glyph unicode="&#x201c;" horiz-adv-x="806" d="M55 1135v122q0 88 66.5 146.5t132.5 60.5q51 0 87 -32.5t36 -79.5q2 -63 -49 -84q-20 -10 -21 -51v-82q0 -49 -33.5 -85t-91.5 -36q-51 0 -89 37t-38 84zM428 1135v122q0 88 66.5 146.5t132.5 60.5q51 0 87 -32.5t36 -79.5q2 -63 -50 -84q-20 -10 -20 -51v-82 q0 -49 -35 -85t-90 -36q-51 0 -89 37t-38 84z" />
<glyph unicode="&#x201d;" horiz-adv-x="804" d="M55 1126v4q0 59 49 80q20 10 21 52v81q0 49 35 85t90 36q51 0 89 -36.5t38 -84.5v-124q0 -86 -66.5 -144.5t-132.5 -60.5q-51 -2 -87 31.5t-36 80.5zM428 1126v4q0 59 49 80q20 10 21 52v81q0 49 34.5 85t90.5 36q51 0 89 -36.5t38 -84.5v-124q0 -86 -67 -144.5 t-132 -60.5q-51 -2 -87 31.5t-36 80.5z" />
<glyph unicode="&#x201e;" horiz-adv-x="806" d="M55 -33q0 57 51 80q18 8 19 49v82q0 49 35 86t92 37q51 0 89 -38t38 -85v-123q0 -86 -66.5 -144t-132.5 -63q-53 0 -88 34t-37 81v4zM428 -33q0 57 51 80q18 8 19 49v82q0 49 34.5 86t92.5 37q51 0 89 -38t38 -85v-123q0 -86 -67 -144t-132 -63q-53 0 -88 34t-37 81v4z " />
<glyph unicode="&#x2022;" horiz-adv-x="686" d="M88 631q0 100 74 174t180 74q104 0 181 -75t77 -173q0 -106 -75.5 -177t-182.5 -71q-109 0 -181.5 71t-72.5 177z" />
<glyph unicode="&#x2026;" horiz-adv-x="1089" d="M70 84v70q0 51 35.5 86.5t93.5 35.5q55 0 93 -35.5t38 -86.5v-66q0 -55 -38 -91t-93.5 -36t-92 35t-36.5 88zM416 84v70q0 51 36.5 86.5t92.5 35.5q53 0 92 -35.5t39 -86.5v-66q0 -55 -39 -91t-92 -36t-91 35t-38 88zM762 84v70q0 51 37 86.5t94 35.5q51 0 89 -35.5 t38 -86.5v-66q0 -55 -38 -91t-89 -36q-57 0 -94 35t-37 88z" />
<glyph unicode="&#x202f;" horiz-adv-x="374" />
<glyph unicode="&#x2039;" horiz-adv-x="608" d="M61 549q0 76 80 137l209 162q27 20 68 20q68 0 102 -49q23 -29 23 -67q0 -55 -41 -86l-131 -101q-10 -8 -10.5 -17t10.5 -18l123 -96q49 -37 49 -94q0 -41 -27 -72q-39 -47 -96 -47q-39 0 -70 27l-227 188q-62 52 -62 113z" />
<glyph unicode="&#x203a;" horiz-adv-x="608" d="M66 752q0 39 22 67q37 49 105 49q39 0 65 -20l209 -162q80 -63 80 -137q0 -61 -60 -113l-227 -188q-31 -27 -72 -27q-55 0 -94 47q-27 31 -26 72q0 57 49 92l123 98q10 8 10 17.5t-10 17.5l-134 101q-40 31 -40 86z" />
<glyph unicode="&#x205f;" horiz-adv-x="468" />
<glyph unicode="&#x20ac;" horiz-adv-x="1208" d="M18 553q0 37 32 68.5t79 31.5h68v123h-78q-43 6 -72 34t-29 69q0 37 32 68.5t79 31.5h68l2 22q12 221 144 327t353 106h312q47 0 86 -36t39 -81t-39 -82t-86 -37h-312q-111 0 -172 -46t-71 -153l-2 -20h442q45 0 76.5 -30.5t31.5 -71.5q0 -43 -31.5 -72t-76.5 -29h-442 v-123h442q45 0 76.5 -30.5t31.5 -71.5t-31.5 -70.5t-76.5 -29.5h-440l4 -23q27 -193 239 -192h308q55 0 92 -37t37 -82t-39 -81t-86 -36h-312q-217 0 -347 114.5t-148 309.5l-2 27h-78q-43 6 -73 33.5t-30 68.5z" />
<glyph unicode="&#x2122;" horiz-adv-x="1646" d="M68 1339q0 35 28.5 65t63.5 30h479q37 0 65.5 -30t28.5 -65t-29.5 -63.5t-62.5 -28.5h-147v-594q0 -35 -29 -64.5t-62 -29.5q-35 0 -64.5 29.5t-29.5 64.5v594h-149q-35 0 -63.5 28.5t-28.5 63.5zM788 653v641q0 53 42 96.5t98 43.5q51 0 89 -27t50 -74l113 -389l120 393 q14 43 52.5 70t85.5 27q53 0 97 -44t44 -96v-641q0 -35 -29.5 -64.5t-64.5 -29.5q-33 0 -62.5 29.5t-29.5 64.5v316q0 8 -7 8q-6 0 -8 -6l-102 -334q-10 -33 -36 -55.5t-62 -22.5q-37 0 -66 24.5t-41 65.5l-84 316q-2 6 -6 6q-8 0 -8 -8v-310q0 -35 -30 -64.5t-64 -29.5 q-33 0 -62 29.5t-29 64.5z" />
<glyph unicode="&#xe000;" horiz-adv-x="1040" d="M0 1040h1040v-1040h-1040v1040z" />
<glyph unicode="&#xfb01;" horiz-adv-x="1181" d="M27 930q0 47 33.5 79.5t86.5 32.5h41q8 106 42 183.5t89.5 121.5t114 67.5t133.5 33.5q61 8 100.5 -27t39.5 -86q0 -43 -27 -72.5t-68 -37.5q-90 -14 -126.5 -56.5t-51.5 -126.5h156q49 0 84 -32.5t35 -79.5t-35 -80t-84 -33h-156v-700q0 -51 -39 -84t-86 -33 q-51 0 -86 33t-35 80v704h-41q-53 0 -86.5 33t-33.5 80zM844 115v813q0 49 32.5 82.5t88.5 33.5q53 0 89 -33.5t36 -82.5v-813q0 -49 -36 -82t-89 -33t-87 33t-34 82zM844 1257v35q0 49 32.5 83t88.5 34q53 0 89 -34t36 -83v-35q0 -47 -36 -79.5t-89 -32.5t-87 32.5 t-34 79.5z" />
<glyph unicode="&#xfb02;" horiz-adv-x="1171" d="M27 930q0 47 33.5 79.5t86.5 32.5h41q8 106 42 183.5t89.5 121.5t114 67.5t133.5 33.5q61 8 100.5 -27t39.5 -86q0 -43 -27 -72.5t-68 -37.5q-90 -14 -126.5 -56.5t-51.5 -126.5h156q49 0 84 -32.5t35 -79.5t-35 -80t-84 -33h-156v-700q0 -51 -39 -84t-86 -33 q-51 0 -86 33t-35 80v704h-41q-53 0 -86.5 33t-33.5 80zM844 117v1200q0 49 34.5 83t88.5 34q53 0 89 -34t36 -85v-1196q0 -51 -36 -85t-89 -34t-88 34t-35 83z" />
<glyph unicode="&#xfb03;" horiz-adv-x="1912" d="M1575 115v813q0 49 32.5 82.5t87.5 33.5q53 0 88 -33.5t35 -82.5v-813q0 -49 -34.5 -82t-88.5 -33q-55 0 -87.5 33t-32.5 82zM1575 1257v35q0 49 32.5 83t87.5 34q53 0 88 -34t35 -83v-35q0 -47 -34.5 -80.5t-88.5 -33.5q-55 0 -87.5 33.5t-32.5 80.5zM760 930 q0 47 33.5 79.5t86.5 32.5h41q8 106 42 183.5t89.5 121.5t114 67.5t133.5 33.5q12 2 23 1q46 0 78 -28q39 -35 39 -86q0 -43 -27 -72.5t-68 -37.5q-90 -14 -126.5 -56.5t-51.5 -126.5h156q49 0 84 -32.5t35 -79.5t-35 -80t-84 -33h-156v-700q0 -51 -39 -84t-86 -33 q-51 0 -86 33t-35 80v704h-41q-53 0 -86.5 33t-33.5 80zM27 930q0 47 33.5 79.5t86.5 32.5h41q8 106 42 183.5t89.5 121.5t114 67.5t133.5 33.5q12 2 23 1q46 0 78 -28q39 -35 39 -86q0 -43 -27 -72.5t-68 -37.5q-90 -14 -126.5 -56.5t-51.5 -126.5h156q49 0 84 -32.5 t35 -79.5t-35 -80t-84 -33h-156v-700q0 -51 -39 -84t-86 -33q-51 0 -86 33t-35 80v704h-41q-53 0 -86.5 33t-33.5 80z" />
<glyph unicode="&#xfb04;" horiz-adv-x="1902" d="M1575 117v1200q0 49 33.5 83t88.5 34q53 0 88 -34t35 -85v-1196q0 -51 -34.5 -85t-88.5 -34q-55 0 -88.5 34t-33.5 83zM760 930q0 47 33.5 79.5t86.5 32.5h41q8 106 42 183.5t89.5 121.5t114 67.5t133.5 33.5q12 2 23 1q46 0 78 -28q39 -35 39 -86q0 -43 -27 -72.5 t-68 -37.5q-90 -14 -126.5 -56.5t-51.5 -126.5h156q49 0 84 -32.5t35 -79.5t-35 -80t-84 -33h-156v-700q0 -51 -39 -84t-86 -33q-51 0 -86 33t-35 80v704h-41q-53 0 -86.5 33t-33.5 80zM27 930q0 47 33.5 79.5t86.5 32.5h41q8 106 42 183.5t89.5 121.5t114 67.5t133.5 33.5 q12 2 23 1q46 0 78 -28q39 -35 39 -86q0 -43 -27 -72.5t-68 -37.5q-90 -14 -126.5 -56.5t-51.5 -126.5h156q49 0 84 -32.5t35 -79.5t-35 -80t-84 -33h-156v-700q0 -51 -39 -84t-86 -33q-51 0 -86 33t-35 80v704h-41q-53 0 -86.5 33t-33.5 80z" />
</font>
</defs>
</svg>
